<svg width="135.000000" height="40.000000" viewBox="0 0 135 40" fill="none" xmlns="http://www.w3.org/2000/svg" xmlns:xlink="http://www.w3.org/1999/xlink">
	<desc>
			Created with Pixso.
	</desc>
	<defs>
		<filter id="filter_54_26_dd" x="9.973022" y="7.141113" width="23.089752" height="25.720703" filterUnits="userSpaceOnUse" color-interpolation-filters="sRGB">
			<feFlood flood-opacity="0" result="BackgroundImageFix"/>
			<feBlend mode="normal" in="SourceGraphic" in2="BackgroundImageFix" result="shape"/>
			<feColorMatrix in="SourceAlpha" type="matrix" values="0 0 0 0 0 0 0 0 0 0 0 0 0 0 0 0 0 0 127 0" result="hardAlpha"/>
			<feOffset dx="0" dy="-0.15"/>
			<feGaussianBlur stdDeviation="0"/>
			<feComposite in2="hardAlpha" operator="arithmetic" k2="-1" k3="1"/>
			<feColorMatrix type="matrix" values="0 0 0 0 0 0 0 0 0 0 0 0 0 0 0 0 0 0 0.12 0"/>
			<feBlend mode="normal" in2="shape" result="effect_innerShadow_1"/>
			<feColorMatrix in="SourceAlpha" type="matrix" values="0 0 0 0 0 0 0 0 0 0 0 0 0 0 0 0 0 0 127 0" result="hardAlpha"/>
			<feOffset dx="0" dy="0.15"/>
			<feGaussianBlur stdDeviation="0"/>
			<feComposite in2="hardAlpha" operator="arithmetic" k2="-1" k3="1"/>
			<feColorMatrix type="matrix" values="0 0 0 0 1 0 0 0 0 1 0 0 0 0 1 0 0 0 0.25 0"/>
			<feBlend mode="normal" in2="effect_innerShadow_1" result="effect_innerShadow_2"/>
		</filter>
		<filter id="filter_54_24_dd" x="10.436035" y="20.000977" width="16.686005" height="12.860718" filterUnits="userSpaceOnUse" color-interpolation-filters="sRGB">
			<feFlood flood-opacity="0" result="BackgroundImageFix"/>
			<feBlend mode="normal" in="SourceGraphic" in2="BackgroundImageFix" result="shape"/>
			<feColorMatrix in="SourceAlpha" type="matrix" values="0 0 0 0 0 0 0 0 0 0 0 0 0 0 0 0 0 0 127 0" result="hardAlpha"/>
			<feOffset dx="0" dy="-0.15"/>
			<feGaussianBlur stdDeviation="0"/>
			<feComposite in2="hardAlpha" operator="arithmetic" k2="-1" k3="1"/>
			<feColorMatrix type="matrix" values="0 0 0 0 0 0 0 0 0 0 0 0 0 0 0 0 0 0 0.078 0"/>
			<feBlend mode="normal" in2="shape" result="effect_innerShadow_1"/>
		</filter>
		<clipPath id="clip0_545">
			<rect id="Store=Google Play, Style=Black" rx="2.500000" width="134.000000" height="39.000000" transform="translate(0.500000 0.500000)" fill="white" fill-opacity="0"/>
		</clipPath>
		<linearGradient id="paint_linear_54_22_0" x1="21.800819" y1="8.708854" x2="5.018824" y2="25.490860" gradientUnits="userSpaceOnUse">
			<stop stop-color="#00A0FF"/>
			<stop offset="0.006600" stop-color="#00A1FF"/>
			<stop offset="0.260100" stop-color="#00BEFF"/>
			<stop offset="0.512200" stop-color="#00D2FF"/>
			<stop offset="0.760400" stop-color="#00DFFF"/>
			<stop offset="1.000000" stop-color="#00E3FF"/>
		</linearGradient>
		<linearGradient id="paint_linear_54_23_0" x1="33.833488" y1="20.001099" x2="9.637589" y2="20.001099" gradientUnits="userSpaceOnUse">
			<stop stop-color="#FFE000"/>
			<stop offset="0.408700" stop-color="#FFBD00"/>
			<stop offset="0.775400" stop-color="#FFA500"/>
			<stop offset="1.000000" stop-color="#FF9C00"/>
		</linearGradient>
		<linearGradient id="paint_linear_54_24_0" x1="24.828133" y1="22.294880" x2="2.069643" y2="45.053375" gradientUnits="userSpaceOnUse">
			<stop stop-color="#FF3A44"/>
			<stop offset="1.000000" stop-color="#C31162"/>
		</linearGradient>
		<linearGradient id="paint_linear_54_25_0" x1="7.297435" y1="0.176990" x2="17.459738" y2="10.339288" gradientUnits="userSpaceOnUse">
			<stop stop-color="#32A071"/>
			<stop offset="0.068500" stop-color="#2DA771"/>
			<stop offset="0.476200" stop-color="#15CF74"/>
			<stop offset="0.800900" stop-color="#06E775"/>
			<stop offset="1.000000" stop-color="#00F076"/>
		</linearGradient>
	</defs>
	<rect id="Store=Google Play, Style=Black" rx="2.500000" width="134.000000" height="39.000000" transform="translate(0.500000 0.500000)" fill="#31352B" fill-opacity="1.000000"/>
	<g clip-path="url(#clip0_545)">
		<path id="Google Play" d="M68.136 21.7509C65.784 21.7509 63.867 23.5399 63.867 26.0039C63.867 28.4529 65.784 30.2568 68.136 30.2568C70.489 30.2568 72.406 28.4529 72.406 26.0039C72.405 23.5399 70.488 21.7509 68.136 21.7509ZM68.136 28.5829C66.847 28.5829 65.736 27.5199 65.736 26.0049C65.736 24.4739 66.848 23.4269 68.136 23.4269C69.425 23.4269 70.536 24.4739 70.536 26.0049C70.536 27.5189 69.425 28.5829 68.136 28.5829ZM58.822 21.7509C56.47 21.7509 54.553 23.5399 54.553 26.0039C54.553 28.4529 56.47 30.2568 58.822 30.2568C61.175 30.2568 63.092 28.4529 63.092 26.0039C63.092 23.5399 61.175 21.7509 58.822 21.7509ZM58.822 28.5829C57.533 28.5829 56.422 27.5199 56.422 26.0049C56.422 24.4739 57.534 23.4269 58.822 23.4269C60.111 23.4269 61.222 24.4739 61.222 26.0049C61.223 27.5189 60.111 28.5829 58.822 28.5829ZM47.744 23.0569L47.744 24.8608L52.062 24.8608C51.933 25.8759 51.595 26.6168 51.079 27.1318C50.451 27.7599 49.468 28.4529 47.744 28.4529C45.086 28.4529 43.008 26.3098 43.008 23.6519C43.008 20.9939 45.086 18.8508 47.744 18.8508C49.178 18.8508 50.225 19.4149 50.998 20.1399L52.271 18.8668C51.191 17.8358 49.758 17.0469 47.744 17.0469C44.103 17.0469 41.042 20.0109 41.042 23.6519C41.042 27.2928 44.103 30.2568 47.744 30.2568C49.709 30.2568 51.192 29.6118 52.351 28.4039C53.543 27.2119 53.914 25.5359 53.914 24.1829C53.914 23.7649 53.882 23.3779 53.817 23.0559L47.744 23.0559L47.744 23.0569ZM93.052 24.4579C92.698 23.5079 91.618 21.7509 89.411 21.7509C87.22 21.7509 85.399 23.4749 85.399 26.0039C85.399 28.3878 87.204 30.2568 89.62 30.2568C91.569 30.2568 92.697 29.0648 93.165 28.3718L91.715 27.4049C91.232 28.1139 90.571 28.5809 89.62 28.5809C88.67 28.5809 87.993 28.1459 87.558 27.2919L93.245 24.9398L93.052 24.4579ZM87.252 25.8759C87.204 24.2319 88.525 23.3949 89.476 23.3949C90.217 23.3949 90.845 23.7659 91.055 24.2969L87.252 25.8759ZM82.629 29.9999L84.497 29.9999L84.497 17.4989L82.629 17.4989L82.629 29.9999ZM79.567 22.7019L79.503 22.7019C79.084 22.2019 78.278 21.7509 77.264 21.7509C75.137 21.7509 73.188 23.6199 73.188 26.0209C73.188 28.4049 75.137 30.2579 77.264 30.2579C78.279 30.2579 79.084 29.8069 79.503 29.2919L79.567 29.2919L79.567 29.9039C79.567 31.5309 78.697 32.4009 77.296 32.4009C76.152 32.4009 75.443 31.5798 75.153 30.8868L73.526 31.5638C73.993 32.6909 75.233 34.0769 77.296 34.0769C79.487 34.0769 81.34 32.7878 81.34 29.6459L81.34 22.0099L79.568 22.0099L79.568 22.7019L79.567 22.7019ZM77.425 28.5829C76.136 28.5829 75.057 27.5029 75.057 26.0209C75.057 24.5219 76.136 23.4269 77.425 23.4269C78.697 23.4269 79.696 24.5219 79.696 26.0209C79.696 27.5029 78.697 28.5829 77.425 28.5829ZM101.806 17.4989L97.335 17.4989L97.335 29.9999L99.2 29.9999L99.2 25.2639L101.805 25.2639C103.873 25.2639 105.907 23.7668 105.907 21.3818C105.907 18.9968 103.874 17.4989 101.806 17.4989ZM101.854 23.5239L99.2 23.5239L99.2 19.2389L101.854 19.2389C103.249 19.2389 104.041 20.3939 104.041 21.3818C104.041 22.3499 103.249 23.5239 101.854 23.5239ZM113.386 21.7289C112.035 21.7289 110.636 22.3239 110.057 23.6428L111.713 24.3339C112.067 23.6428 112.727 23.4169 113.418 23.4169C114.383 23.4169 115.364 23.9958 115.38 25.0249L115.38 25.1539C115.042 24.9608 114.318 24.6719 113.434 24.6719C111.649 24.6719 109.831 25.6528 109.831 27.4858C109.831 29.1589 111.295 30.2358 112.935 30.2358C114.189 30.2358 114.881 29.6729 115.315 29.0128L115.379 29.0128L115.379 29.9779L117.181 29.9779L117.181 25.1849C117.182 22.9669 115.524 21.7289 113.386 21.7289ZM113.16 28.5798C112.55 28.5798 111.697 28.2739 111.697 27.5178C111.697 26.5529 112.759 26.1829 113.676 26.1829C114.495 26.1829 114.882 26.3599 115.38 26.6008C115.235 27.7599 114.238 28.5798 113.16 28.5798ZM123.743 22.0018L121.604 27.4219L121.54 27.4219L119.32 22.0018L117.31 22.0018L120.639 29.5769L118.741 33.7909L120.687 33.7909L125.818 22.0018L123.743 22.0018ZM106.937 29.9999L108.802 29.9999L108.802 17.4989L106.937 17.4989L106.937 29.9999Z" fill="#FFFFFF" fill-opacity="1.000000" fill-rule="nonzero"/>
		<path id="Get it on" d="M73.6089 12.2252C73.0189 12.8312 72.2859 13.1343 71.4089 13.1343C70.5319 13.1343 69.7989 12.8312 69.2099 12.2252C68.6199 11.6193 68.3259 10.8772 68.3259 10.0002C68.3259 9.12329 68.6199 8.38123 69.2099 7.77527C69.7989 7.16919 70.5319 6.86523 71.4089 6.86523C72.2809 6.86523 73.0129 7.17029 73.6049 7.77917C74.1969 8.38818 74.4929 9.12817 74.4929 10.0002C74.4929 10.8772 74.1979 11.6193 73.6089 12.2252ZM47.418 10.2432C47.418 11.0812 47.17 11.7482 46.673 12.2462C46.1091 12.8381 45.373 13.1342 44.4691 13.1342C43.6031 13.1342 42.8661 12.8342 42.261 12.2341C41.655 11.6332 41.3521 10.8892 41.3521 10.0012C41.3521 9.11218 41.655 8.36816 42.261 7.76819C42.8661 7.16724 43.6031 6.86719 44.4691 6.86719C44.899 6.86719 45.31 6.95117 45.7 7.11816C46.091 7.28613 46.4041 7.50916 46.638 7.78821L46.1111 8.31616C45.7141 7.84119 45.1671 7.60425 44.468 7.60425C43.836 7.60425 43.2901 7.82617 42.829 8.27014C42.368 8.71423 42.138 9.29114 42.138 10.0002C42.138 10.7092 42.368 11.2861 42.829 11.7302C43.2901 12.1742 43.836 12.3962 44.468 12.3962C45.138 12.3962 45.6971 12.1732 46.144 11.7262C46.4341 11.4352 46.6021 11.0302 46.647 10.5112L44.468 10.5112L44.468 9.79016L47.375 9.79016C47.405 9.94714 47.418 10.0981 47.418 10.2432ZM52.0281 7.7373L49.2961 7.7373L49.2961 9.63928L51.7601 9.63928L51.7601 10.3602L49.2961 10.3602L49.2961 12.2622L52.0281 12.2622L52.0281 13.0002L48.5251 13.0002L48.5251 7.00024L52.0281 7.00024L52.0281 7.7373ZM55.279 13.0002L54.508 13.0002L54.508 7.7373L52.832 7.7373L52.832 7.00024L56.955 7.00024L56.955 7.7373L55.279 7.7373L55.279 13.0002ZM59.938 13.0002L59.938 7.00024L60.709 7.00024L60.709 13.0002L59.938 13.0002ZM64.1281 13.0002L63.3571 13.0002L63.3571 7.7373L61.6812 7.7373L61.6812 7.00024L65.8042 7.00024L65.8042 7.7373L64.1281 7.7373L64.1281 13.0002ZM75.575 13.0002L75.575 7.00024L76.513 7.00024L79.429 11.6672L79.4619 11.6672L79.429 10.5112L79.429 7.00024L80.2 7.00024L80.2 13.0002L79.3949 13.0002L76.3439 8.1062L76.3109 8.1062L76.3439 9.26221L76.3439 13.0002L75.575 13.0002ZM69.7789 11.7223C70.2229 12.1722 70.7659 12.3962 71.4089 12.3962C72.0519 12.3962 72.5959 12.1713 73.0389 11.7223C73.4829 11.2722 73.7059 10.6982 73.7059 10.0002C73.7059 9.30225 73.4829 8.72827 73.0389 8.2782C72.5959 7.82825 72.0519 7.60425 71.4089 7.60425C70.7659 7.60425 70.2229 7.82922 69.7789 8.2782C69.3359 8.72827 69.1129 9.30225 69.1129 10.0002C69.1129 10.6982 69.3359 11.2722 69.7789 11.7223Z" fill="#FFFFFF" fill-opacity="1.000000" fill-rule="evenodd"/>
		<path id="Get it on" d="M46.673 12.2462C46.1091 12.8381 45.373 13.1342 44.4691 13.1342C43.6031 13.1342 42.8661 12.8342 42.261 12.2341C41.655 11.6332 41.3521 10.8892 41.3521 10.0012C41.3521 9.11218 41.655 8.36816 42.261 7.76819C42.8661 7.16724 43.6031 6.86719 44.4691 6.86719C44.899 6.86719 45.31 6.95117 45.7 7.11816C46.091 7.28613 46.4041 7.50916 46.638 7.78821L46.1111 8.31616C45.7141 7.84119 45.1671 7.60425 44.468 7.60425C43.836 7.60425 43.2901 7.82617 42.829 8.27014C42.368 8.71423 42.138 9.29114 42.138 10.0002C42.138 10.7092 42.368 11.2861 42.829 11.7302C43.2901 12.1742 43.836 12.3962 44.468 12.3962C45.138 12.3962 45.6971 12.1732 46.144 11.7262C46.4341 11.4352 46.6021 11.0302 46.647 10.5112L44.468 10.5112L44.468 9.79016L47.375 9.79016C47.405 9.94714 47.418 10.0981 47.418 10.2432C47.418 11.0812 47.17 11.7482 46.673 12.2462ZM49.2961 7.7373L49.2961 9.63928L51.7601 9.63928L51.7601 10.3602L49.2961 10.3602L49.2961 12.2622L52.0281 12.2622L52.0281 13.0002L48.5251 13.0002L48.5251 7.00024L52.0281 7.00024L52.0281 7.7373L49.2961 7.7373ZM54.508 13.0002L54.508 7.7373L52.832 7.7373L52.832 7.00024L56.955 7.00024L56.955 7.7373L55.279 7.7373L55.279 13.0002L54.508 13.0002ZM59.938 7.00024L60.709 7.00024L60.709 13.0002L59.938 13.0002L59.938 7.00024ZM63.3571 13.0002L63.3571 7.7373L61.6812 7.7373L61.6812 7.00024L65.8042 7.00024L65.8042 7.7373L64.1281 7.7373L64.1281 13.0002L63.3571 13.0002ZM71.4089 13.1343C70.5319 13.1343 69.7989 12.8312 69.2099 12.2252C68.6199 11.6193 68.3259 10.8772 68.3259 10.0002C68.3259 9.12329 68.6199 8.38123 69.2099 7.77527C69.7989 7.16919 70.5319 6.86523 71.4089 6.86523C72.2809 6.86523 73.0129 7.17029 73.6049 7.77917C74.1969 8.38818 74.4929 9.12817 74.4929 10.0002C74.4929 10.8772 74.1979 11.6193 73.6089 12.2252C73.0189 12.8312 72.2859 13.1343 71.4089 13.1343ZM71.4089 12.3962C72.0519 12.3962 72.5959 12.1713 73.0389 11.7223C73.4829 11.2722 73.7059 10.6982 73.7059 10.0002C73.7059 9.30225 73.4829 8.72827 73.0389 8.2782C72.5959 7.82825 72.0519 7.60425 71.4089 7.60425C70.7659 7.60425 70.2229 7.82922 69.7789 8.2782C69.3359 8.72827 69.1129 9.30225 69.1129 10.0002C69.1129 10.6982 69.3359 11.2722 69.7789 11.7223C70.2229 12.1722 70.7659 12.3962 71.4089 12.3962ZM75.575 7.00024L76.513 7.00024L79.429 11.6672L79.4619 11.6672L79.429 10.5112L79.429 7.00024L80.2 7.00024L80.2 13.0002L79.3949 13.0002L76.3439 8.1062L76.3109 8.1062L76.3439 9.26221L76.3439 13.0002L75.575 13.0002L75.575 7.00024Z" stroke="#FFFFFF" stroke-opacity="1.000000" stroke-width="0.200000"/>
		<g filter="url(#filter_54_26_dd)">
			<path id="Vector" d="M10.436 7.53784C10.145 7.84583 9.97302 8.32385 9.97302 8.94287L9.97302 31.0588C9.97302 31.6788 10.145 32.1559 10.436 32.4639L10.51 32.5359L22.899 20.1469L22.899 20.0009L22.899 19.8549L10.51 7.46484L10.436 7.53784Z" fill="url(#paint_linear_54_22_0)" fill-opacity="1.000000" fill-rule="nonzero"/>
			<path id="Vector" d="M27.028 24.2781L22.899 20.1471L22.899 20.0011L22.899 19.8551L27.029 15.7251L27.122 15.7781L32.015 18.5581C33.412 19.3521 33.412 20.6511 32.015 21.446L27.122 24.2261L27.028 24.2781Z" fill="url(#paint_linear_54_23_0)" fill-opacity="1.000000" fill-rule="nonzero"/>
			<g filter="url(#filter_54_24_dd)">
				<path id="Vector" d="M27.122 24.225L22.898 20.001L10.436 32.464C10.896 32.952 11.657 33.012 12.514 32.526L27.122 24.225Z" fill="url(#paint_linear_54_24_0)" fill-opacity="1.000000" fill-rule="nonzero"/>
			</g>
			<path id="Vector" d="M27.122 15.7772L12.514 7.47717C11.657 6.99023 10.896 7.05115 10.436 7.53918L22.899 20.0022L27.122 15.7772Z" fill="url(#paint_linear_54_25_0)" fill-opacity="1.000000" fill-rule="nonzero"/>
		</g>
	</g>
	<rect id="Store=Google Play, Style=Black" rx="2.500000" width="134.000000" height="39.000000" transform="translate(0.500000 0.500000)" stroke="#C2C2C2" stroke-opacity="1.000000" stroke-width="1.000000"/>
</svg>
