<svg width="120.000000" height="40.000000" viewBox="0 0 120 40" fill="none" xmlns="http://www.w3.org/2000/svg" xmlns:xlink="http://www.w3.org/1999/xlink">
	<desc>
			Created with Pixso.
	</desc>
	<defs/>
	<rect id="Store=App Store, Style=Black" rx="3.500000" width="119.000000" height="39.000000" transform="translate(0.500000 0.500000)" fill="#31352B" fill-opacity="1.000000"/>
	<path id="App Store" d="M74.5628 30.791C71.8097 30.791 69.9599 29.3715 69.8223 27.1517L71.7323 27.1517C71.8957 28.3304 73.0486 29.079 74.7091 29.079C76.2577 29.079 77.3934 28.2788 77.3934 27.1776C77.3934 26.2312 76.6707 25.6633 75.0274 25.2762L73.4272 24.889C71.1816 24.3643 70.1578 23.2802 70.1578 21.4562C70.1578 19.2451 71.9646 17.7739 74.6747 17.7739C77.1955 17.7739 79.0367 19.2451 79.1485 21.3358L77.2729 21.3358C77.0923 20.1915 76.0942 19.4774 74.6489 19.4774C73.126 19.4774 72.1108 20.2087 72.1108 21.3271C72.1108 22.2134 72.7647 22.7209 74.3821 23.0995L75.7501 23.4351C78.2968 24.0287 79.3464 25.0612 79.3464 26.9281C79.3464 29.3026 77.5052 30.791 74.5628 30.791ZM45.4906 30.4899L43.443 30.4899L42.3073 27.1948L37.5754 27.1948L36.4312 30.4899L34.4523 30.4899L38.9348 18.0751L41.0082 18.0751L45.4906 30.4899ZM81.5259 21.4918L81.5259 19.2008L83.3105 19.2008L83.3105 21.4918L85.2695 21.4918L85.2695 22.9943L83.3105 22.9943L83.3105 27.6427C83.3105 28.589 83.7007 29.004 84.5889 29.004C84.8628 29.004 85.0205 28.9874 85.2695 28.9625L85.2695 30.4484C84.979 30.4982 84.647 30.5397 84.2983 30.5397C82.3145 30.5397 81.5259 29.8424 81.5259 28.0992L81.5259 22.9943L80.0898 22.9943L80.0898 21.4918L81.5259 21.4918ZM40.0188 20.3292L39.8726 20.3292L38.0658 25.5773L41.817 25.5773L40.0188 20.3292ZM94.5817 25.9659C94.5817 28.8961 92.963 30.6642 90.3234 30.6642C87.6754 30.6642 86.0568 28.8961 86.0568 25.9659C86.0568 23.0524 87.6837 21.276 90.3234 21.276C92.9547 21.276 94.5817 23.0524 94.5817 25.9659ZM105.553 29.1451C106.632 29.1451 107.371 28.755 107.703 28.0494L109.421 28.0494C109.014 29.6681 107.57 30.6642 105.503 30.6642C102.913 30.6642 101.328 28.8878 101.328 25.9991C101.328 23.1105 102.946 21.276 105.495 21.276C108.01 21.276 109.529 22.9943 109.529 25.8331L109.529 26.4557L103.145 26.4557L103.145 26.5553C103.204 28.1407 104.125 29.1451 105.553 29.1451ZM48.4961 22.9445C49.0439 21.9152 50.1064 21.3009 51.335 21.3009C53.6343 21.3009 55.0869 23.0939 55.0869 25.9659C55.0869 28.838 53.6343 30.6393 51.3516 30.6393C50.0649 30.6393 49.0439 30.0748 48.5708 29.1202L48.4297 29.1202L48.4297 33.4948L46.645 33.4948L46.645 21.4503L48.3633 21.4503L48.3633 22.9445L48.4961 22.9445ZM58.4929 22.9445C59.0407 21.9152 60.1032 21.3009 61.3318 21.3009C63.6311 21.3009 65.0837 23.0939 65.0837 25.9659C65.0837 28.838 63.6311 30.6393 61.3484 30.6393C60.0617 30.6393 59.0407 30.0748 58.5676 29.1202L58.4265 29.1202L58.4265 33.4948L56.6418 33.4948L56.6418 21.4503L58.3601 21.4503L58.3601 22.9445L58.4929 22.9445ZM97.7512 30.4899L95.9666 30.4899L95.9666 21.4503L97.6848 21.4503L97.6848 22.8365L97.8176 22.8365C98.075 21.9484 99.0793 21.3009 100.258 21.3009C100.524 21.3009 100.864 21.3258 101.055 21.3756L101.055 23.1354C100.906 23.0856 100.374 23.0275 100.059 23.0275C98.7058 23.0275 97.7512 23.8824 97.7512 25.1525L97.7512 30.4899ZM107.711 25.1359C107.669 23.7164 106.806 22.795 105.486 22.795C104.166 22.795 103.245 23.7247 103.145 25.1359L107.711 25.1359ZM87.8995 25.9659C87.8995 27.9415 88.7711 29.0787 90.3234 29.0787C91.8673 29.0787 92.7472 27.9332 92.7472 25.9659C92.7472 24.007 91.8673 22.8615 90.3234 22.8615C88.7711 22.8615 87.8995 24.007 87.8995 25.9659ZM48.3965 25.9742C48.3965 27.8585 49.3345 29.0372 50.8286 29.0372C52.3477 29.0372 53.2524 27.8834 53.2524 25.9659C53.2524 24.0568 52.3477 22.903 50.8369 22.903C49.3345 22.903 48.3965 24.0817 48.3965 25.9742ZM58.3933 25.9742C58.3933 27.8585 59.3313 29.0372 60.8254 29.0372C62.3445 29.0372 63.2492 27.8834 63.2492 25.9659C63.2492 24.0568 62.3445 22.903 60.8337 22.903C59.3313 22.903 58.3933 24.0817 58.3933 25.9742Z" fill="#FFFFFF" fill-opacity="1.000000" fill-rule="evenodd"/>
	<path id="Download on the" d="M59.09 14.6997L59.9824 14.6997L59.9824 8.41602L59.09 8.41602L59.09 14.6997ZM73.213 14.7744C73.8355 14.7744 74.3626 14.4797 74.6324 13.9858L74.703 13.9858L74.703 14.6997L75.558 14.6997L75.558 8.41602L74.6656 8.41602L74.6656 10.8979L74.5992 10.8979C74.3543 10.3999 73.8314 10.1052 73.213 10.1052C72.0716 10.1052 71.337 11.01 71.337 12.4377C71.337 13.8696 72.0633 14.7744 73.213 14.7744ZM95.6732 14.6997L96.5656 14.6997L96.5656 12.0601C96.5656 11.3752 96.9723 10.9146 97.7028 10.9146C98.3336 10.9146 98.6698 11.2798 98.6698 12.002L98.6698 14.6997L99.5622 14.6997L99.5622 11.782C99.5622 10.707 98.9687 10.0969 98.0058 10.0969C97.3251 10.0969 96.8478 10.3999 96.6278 10.9062L96.5573 10.9062L96.5573 8.41602L95.6732 8.41602L95.6732 14.6997ZM35.6511 8.71069L35.6511 14.6997L37.8135 14.6997C39.5981 14.6997 40.6316 13.5999 40.6316 11.6865C40.6316 9.80225 39.5898 8.71069 37.8135 8.71069L35.6511 8.71069ZM92.6036 9.05518L92.6036 10.2007L91.8856 10.2007L91.8856 10.9519L92.6036 10.9519L92.6036 13.5044C92.6036 14.376 92.9979 14.7246 93.9898 14.7246C94.1642 14.7246 94.3302 14.7039 94.4754 14.679L94.4754 13.936C94.3509 13.9485 94.2721 13.9568 94.1351 13.9568C93.691 13.9568 93.4959 13.7493 93.4959 13.2761L93.4959 10.9519L94.4754 10.9519L94.4754 10.2007L93.4959 10.2007L93.4959 9.05518L92.6036 9.05518ZM36.5808 9.55737L37.7097 9.55737C38.9507 9.55737 39.6853 10.3459 39.6853 11.699C39.6853 13.0728 38.9631 13.853 37.7097 13.853L36.5808 13.853L36.5808 9.55737ZM43.7967 14.7869C45.1165 14.7869 45.9258 13.9028 45.9258 12.4377C45.9258 10.981 45.1124 10.0928 43.7967 10.0928C42.4769 10.0928 41.6634 10.981 41.6634 12.4377C41.6634 13.9028 42.4727 14.7869 43.7967 14.7869ZM53.8456 14.6997L54.7379 14.6997L54.7379 12.0559C54.7379 11.3503 55.1571 10.9104 55.817 10.9104C56.477 10.9104 56.7924 11.2715 56.7924 11.9978L56.7924 14.6997L57.6847 14.6997L57.6847 11.7737C57.6847 10.6987 57.1286 10.0928 56.12 10.0928C55.4394 10.0928 54.9911 10.3958 54.7711 10.8979L54.7047 10.8979L54.7047 10.1799L53.8456 10.1799L53.8456 14.6997ZM63.3384 14.7869C64.6582 14.7869 65.4675 13.9028 65.4675 12.4377C65.4675 10.981 64.6541 10.0928 63.3384 10.0928C62.0186 10.0928 61.2051 10.981 61.2051 12.4377C61.2051 13.9028 62.0144 14.7869 63.3384 14.7869ZM67.898 14.7744C68.4915 14.7744 68.9854 14.5171 69.2552 14.0647L69.3257 14.0647L69.3257 14.6997L70.1849 14.6997L70.1849 11.6118C70.1849 10.6572 69.5457 10.0928 68.4127 10.0928C67.3875 10.0928 66.657 10.5908 66.5657 11.3669L67.429 11.3669C67.5286 11.0474 67.8731 10.8647 68.3712 10.8647C68.9813 10.8647 69.2967 11.1345 69.2967 11.6118L69.2967 12.002L68.0723 12.0725C66.9974 12.1389 66.3914 12.6079 66.3914 13.4214C66.3914 14.2473 67.0264 14.7744 67.898 14.7744ZM81.3444 14.7869C82.6642 14.7869 83.4736 13.9028 83.4736 12.4377C83.4736 10.981 82.6601 10.0928 81.3444 10.0928C80.0246 10.0928 79.2111 10.981 79.2111 12.4377C79.2111 13.9028 80.0204 14.7869 81.3444 14.7869ZM84.6548 14.6997L85.5471 14.6997L85.5471 12.0559C85.5471 11.3503 85.9663 10.9104 86.6262 10.9104C87.2861 10.9104 87.6016 11.2715 87.6016 11.9978L87.6016 14.6997L88.4939 14.6997L88.4939 11.7737C88.4939 10.6987 87.9377 10.0928 86.9292 10.0928C86.2485 10.0928 85.8003 10.3958 85.5803 10.8979L85.5139 10.8979L85.5139 10.1799L84.6548 10.1799L84.6548 14.6997ZM103.889 13.4795C103.723 13.8323 103.354 14.0273 102.814 14.0273C102.101 14.0273 101.64 13.5251 101.611 12.7324L101.611 12.6826L104.802 12.6826L104.802 12.3713C104.802 10.9519 104.043 10.0928 102.785 10.0928C101.511 10.0928 100.702 11.01 100.702 12.4543C100.702 13.8987 101.495 14.7869 102.789 14.7869C103.823 14.7869 104.545 14.2888 104.748 13.4795L103.889 13.4795ZM52.818 10.1799L51.9256 10.1799L51.1205 13.6289L51.0499 13.6289L50.1202 10.1799L49.2652 10.1799L48.3355 13.6289L48.2691 13.6289L47.4598 10.1799L46.555 10.1799L47.8001 14.6997L48.7174 14.6997L49.6471 11.3711L49.7176 11.3711L50.6515 14.6997L51.577 14.6997L52.818 10.1799ZM102.781 10.8523C103.441 10.8523 103.873 11.313 103.893 12.0227L101.611 12.0227C101.661 11.3171 102.121 10.8523 102.781 10.8523ZM43.7967 13.9941C43.0206 13.9941 42.5848 13.4255 42.5848 12.4377C42.5848 11.4583 43.0206 10.8855 43.7967 10.8855C44.5687 10.8855 45.0086 11.4583 45.0086 12.4377C45.0086 13.4214 44.5687 13.9941 43.7967 13.9941ZM63.3384 13.9941C62.5623 13.9941 62.1265 13.4255 62.1265 12.4377C62.1265 11.4583 62.5623 10.8855 63.3384 10.8855C64.1104 10.8855 64.5503 11.4583 64.5503 12.4377C64.5503 13.4214 64.1104 13.9941 63.3384 13.9941ZM81.3444 13.9941C80.5683 13.9941 80.1325 13.4255 80.1325 12.4377C80.1325 11.4583 80.5683 10.8855 81.3444 10.8855C82.1164 10.8855 82.5563 11.4583 82.5563 12.4377C82.5563 13.4214 82.1164 13.9941 81.3444 13.9941ZM73.4662 10.9062C74.2132 10.9062 74.6822 11.4998 74.6822 12.4419C74.6822 13.3882 74.2174 13.9734 73.4662 13.9734C72.7108 13.9734 72.2584 13.3965 72.2584 12.4377C72.2584 11.4873 72.7149 10.9062 73.4662 10.9062ZM68.1263 14.0232C67.6407 14.0232 67.2879 13.7866 67.2879 13.3799C67.2879 12.9814 67.5701 12.7698 68.1927 12.7283L69.2967 12.6577L69.2967 13.0354C69.2967 13.5957 68.7986 14.0232 68.1263 14.0232Z" fill="#FFFFFF" fill-opacity="1.000000" fill-rule="evenodd"/>
	<path id="Apple logo" d="M23.1519 8.7207C23.2487 9.98499 22.8488 11.2371 22.0373 12.2113C21.2601 13.178 20.0408 13.7545 18.8006 13.7417C18.7214 12.5258 19.14 11.2957 19.9443 10.3804C20.7668 9.44348 21.912 8.85095 23.1519 8.7207ZM27.1255 16.149C25.6934 17.0294 24.7906 18.6201 24.769 20.301C24.771 22.2002 25.9391 23.9604 27.6882 24.7002C27.3483 25.8047 26.8358 26.8484 26.1698 27.7927C25.2754 29.1306 24.3377 30.4377 22.8493 30.4619C22.1414 30.4783 21.6636 30.2747 21.1657 30.0626C20.6464 29.8413 20.1052 29.6108 19.2583 29.6108C17.584 29.6108 17.0659 30.4377 15.6789 30.4952C14.2614 30.5477 13.1782 29.0673 12.2513 27.7419C10.3987 25.0354 8.95609 20.1143 10.8901 16.7659C11.7898 15.1492 13.5137 14.0978 15.363 14.038C16.1669 14.0215 16.9383 14.3313 17.6147 14.603C18.1319 14.8108 18.5935 14.9961 18.9715 14.9961C19.3038 14.9961 19.7525 14.8181 20.2755 14.6105C21.0992 14.2836 22.1072 13.8835 23.1344 13.9913C24.7088 14.0405 26.2221 14.8586 27.1255 16.149Z" fill="#FFFFFF" fill-opacity="1.000000" fill-rule="evenodd"/>
	<rect id="Store=App Store, Style=Black" rx="3.500000" width="119.000000" height="39.000000" transform="translate(0.500000 0.500000)" stroke="#C2C2C2" stroke-opacity="1.000000" stroke-width="1.000000"/>
</svg>
