<svg width="16.508728" height="15.600098" viewBox="0 0 16.5087 15.6001" fill="none" xmlns="http://www.w3.org/2000/svg" xmlns:xlink="http://www.w3.org/1999/xlink">
		<clipPath id="clip120_136">
			<rect id="Frame" width="16.508738" height="15.600000" fill="white" fill-opacity="0"/>
		</clipPath>
	</defs>
	<rect id="Frame" width="16.508738" height="15.600000" fill="#FFFFFF" fill-opacity="0"/>
	<g clip-path="url(#clip120_136)">
		<path id="Vector" d="M10.318 14.2998C10.0587 14.2998 9.81927 14.1614 9.70233 13.9404L7.66077 10.082C7.54865 9.87012 7.5679 9.6167 7.7103 9.4209L11.0058 5.19995L6.53818 8.31323C6.33112 8.44849 6.06284 8.46533 5.83859 8.36011L1.75613 6.43164C1.51126 6.31519 1.362 6.07275 1.37711 5.81421C1.39157 5.55542 1.56836 5.3291 1.82559 5.24023L14.895 0.690186C15.1461 0.60376 15.4288 0.660156 15.6194 0.840332C15.8092 1.01904 15.8711 1.28687 15.7782 1.52466L10.9632 13.8748C10.8683 14.1179 10.6296 14.2849 10.3558 14.2986C10.3434 14.2991 10.3304 14.2998 10.318 14.2998Z" fill="#FFFFFF" fill-opacity="1.000000" fill-rule="nonzero"/>
	</g>
</svg>
