<svg width="8.718750" height="11.519531" viewBox="0 0 8.71875 11.5195" fill="none" xmlns="http://www.w3.org/2000/svg" xmlns:xlink="http://www.w3.org/1999/xlink">
	<desc>
			Created with Pixso.
	</desc>
	<defs/>
	<path id="₴" d="M2.41406 11.1445Q3.28125 11.5195 4.41406 11.5195Q5.79297 11.5195 6.75781 11.0898Q7.72656 10.6562 8.22266 9.97656Q8.60843 9.44802 8.69422 8.8746Q8.71875 8.71062 8.71875 8.54297Q8.71875 8.49879 8.70728 8.45782Q8.68528 8.37925 8.62109 8.3125Q8.57756 8.26352 8.52308 8.23729Q8.46023 8.20703 8.38281 8.20703L7.55078 8.20703Q7.39386 8.20703 7.30543 8.28485Q7.2948 8.29421 7.28516 8.30469Q7.19922 8.39844 7.13672 8.52734Q7.05469 8.91016 6.75 9.28906Q6.44922 9.66406 5.87109 9.91406Q5.29688 10.1602 4.38281 10.1602Q3.24609 10.1602 2.63672 9.67188Q2.4033 9.48363 2.25987 9.24198Q2.03125 8.85681 2.03125 8.33594Q2.03125 7.77678 2.29069 7.39302Q2.29949 7.38 2.30859 7.36719Q2.37581 7.27383 2.464 7.18359L8.35156 7.18359Q8.46088 7.18359 8.5429 7.13628Q8.58104 7.11427 8.61328 7.08203Q8.6533 7.04201 8.67814 6.99411Q8.71875 6.91579 8.71875 6.81641L8.71875 6.55859Q8.71875 6.45535 8.67492 6.37645Q8.65076 6.33296 8.61328 6.29688Q8.57719 6.2594 8.5337 6.23524Q8.45481 6.19141 8.35156 6.19141L4.3027 6.19141Q4.61539 6.08008 4.97656 5.96875Q5.72261 5.72322 6.32406 5.42188L8.35156 5.42188Q8.46088 5.42188 8.5429 5.37456Q8.58104 5.35255 8.61328 5.32031Q8.6533 5.28029 8.67814 5.2324Q8.71875 5.15407 8.71875 5.05469L8.71875 4.80078Q8.71875 4.7014 8.67814 4.62307Q8.6533 4.57518 8.61328 4.53516Q8.57719 4.49768 8.5337 4.47352Q8.45481 4.42969 8.35156 4.42969L7.63245 4.42969Q7.66899 4.38338 7.70312 4.33594Q7.71543 4.319 7.72735 4.3018Q8.09766 3.76751 8.09766 2.97656Q8.09766 2.3214 7.8573 1.77124Q7.78668 1.6096 7.69531 1.45703Q7.60352 1.30225 7.49287 1.16239Q7.12319 0.695166 6.54297 0.394531Q5.79297 0 4.71875 0Q3.71094 0 2.94141 0.265625Q2.17578 0.527344 1.66406 0.96875Q1.15234 1.40625 0.894531 1.91016Q0.640625 2.41406 0.640625 2.89453Q0.640625 2.90586 0.641562 2.91711Q0.65 3.01836 0.734375 3.11328Q0.779154 3.15985 0.833789 3.18507Q0.898304 3.21484 0.976562 3.21484L1.83984 3.21484Q1.95312 3.21484 2.07812 3.15234Q2.10096 3.14058 2.12122 3.12538Q2.21533 3.0548 2.25391 2.91016Q2.28499 2.72581 2.35695 2.55911Q2.54725 2.11824 3.02344 1.80078Q3.67969 1.35938 4.71875 1.35938Q5.56641 1.35938 6.09375 1.76172Q6.20706 1.8467 6.29621 1.95213Q6.625 2.34096 6.625 3.00781Q6.625 3.4424 6.43258 3.76064Q6.37075 3.86289 6.28906 3.95312Q6.05937 4.20419 5.67992 4.42969L0.367188 4.42969Q0.227061 4.42969 0.13658 4.49671Q0.113558 4.51376 0.09375 4.53516Q0.0697053 4.56221 0.0518275 4.59285Q0 4.6817 0 4.80078L0 5.05469Q0 5.17377 0.0518275 5.26261Q0.0697053 5.29326 0.09375 5.32031Q0.109724 5.33693 0.127787 5.35082Q0.220159 5.42188 0.367188 5.42188L3.28701 5.42188Q2.53958 5.69448 1.97656 6.02344Q1.83861 6.10404 1.71373 6.19141L0.367188 6.19141Q0.227061 6.19141 0.13658 6.25843Q0.113558 6.27548 0.09375 6.29688Q0.0719804 6.32046 0.0552658 6.3472Q0 6.43563 0 6.55859L0 6.81641Q0 6.93549 0.0518275 7.02433Q0.0697053 7.05498 0.09375 7.08203Q0.109724 7.09864 0.127787 7.11254Q0.220159 7.18359 0.367188 7.18359L0.819038 7.18359Q0.558594 7.70111 0.558594 8.38281Q0.558594 9.25719 0.94387 9.901Q0.995781 9.98775 1.05469 10.0703Q1.13459 10.1823 1.22403 10.2861Q1.68983 10.8267 2.41406 11.1445Z" fill="#C2C2C2" fill-opacity="1.000000" fill-rule="evenodd"/>
</svg>
