<svg width="44.000000" height="42.638245" viewBox="0 0 44 42.6382" fill="none" xmlns="http://www.w3.org/2000/svg" xmlns:xlink="http://www.w3.org/1999/xlink">
	<path id="Vector" d="M44 21.3191C44 19.4567 42.9108 17.8702 41.3983 17.291C41.1658 11.5127 39.2092 7.07831 35.573 4.09851C32.2543 1.37891 27.6877 0 22 0C16.3123 0 11.7457 1.37891 8.427 4.09857C4.79083 7.07831 2.83423 11.5127 2.60175 17.291C1.08917 17.8702 0 19.4567 0 21.3191C0 22.4104 0.374146 23.4067 0.987854 24.1617C0.374146 24.9166 0 25.913 0 27.0042C0 28.8781 1.1026 30.4724 2.62958 31.0428C3.1825 37.5373 8.1897 42.6382 14.2656 42.6382L29.7344 42.6382C35.8103 42.6382 40.8175 37.5373 41.3704 31.0428C42.8974 30.4724 44 28.8781 44 27.0042C44 25.913 43.6259 24.9166 43.0121 24.1617C43.6259 23.4067 44 22.4104 44 21.3191ZM22 2.84253C29.3933 2.84253 38.1512 5.35535 38.8035 17.0553L5.19653 17.0553C5.84875 5.35535 14.6067 2.84253 22 2.84253ZM3.86719 19.8978L40.1328 19.8978C40.8436 19.8978 41.4219 20.5354 41.4219 21.3191C41.4219 22.1028 40.8436 22.7404 40.1328 22.7404L3.86719 22.7404C3.15637 22.7404 2.57812 22.1028 2.57812 21.3191C2.57812 20.5354 3.15637 19.8978 3.86719 19.8978ZM29.7344 39.7957L14.2656 39.7957C9.68457 39.7957 5.883 36.083 5.24957 31.2681L6.44531 31.2681C7.30707 31.2681 7.57941 31.5912 8.12189 32.2353C8.78857 33.0267 9.70166 34.1106 11.6875 34.1106C13.6874 34.1106 14.5767 33.0156 15.226 32.2161C15.7387 31.5849 15.996 31.2681 16.8438 31.2681C17.6915 31.2681 17.9488 31.5849 18.4615 32.2161C19.1108 33.0156 20.0001 34.1106 22 34.1106C23.9999 34.1106 24.8892 33.0156 25.5385 32.2161C26.0511 31.5849 26.3085 31.2681 27.1562 31.2681C28.004 31.2681 28.2614 31.5849 28.774 32.2161C29.4233 33.0156 30.3126 34.1106 32.3125 34.1106C34.3124 34.1106 35.2017 33.0156 35.851 32.2161C36.3636 31.5849 36.621 31.2681 37.4688 31.2681L38.7504 31.2681C38.117 36.083 34.3154 39.7957 29.7344 39.7957ZM40.1328 28.4255L37.4688 28.4255C35.4689 28.4255 34.5796 29.5204 33.9303 30.3199C33.4176 30.9512 33.1603 31.2681 32.3125 31.2681C31.4647 31.2681 31.2074 30.9512 30.6947 30.3199C30.0454 29.5204 29.1561 28.4255 27.1562 28.4255C25.1564 28.4255 24.2671 29.5204 23.6178 30.3199C23.1051 30.9512 22.8478 31.2681 22 31.2681C21.1522 31.2681 20.895 30.9512 20.3822 30.3199C19.7329 29.5204 18.8436 28.4255 16.8438 28.4255C14.8439 28.4255 13.9546 29.5204 13.3053 30.3199C12.7925 30.9512 12.5353 31.2681 11.6875 31.2681C10.8257 31.2681 10.5534 30.9448 10.0109 30.3008C9.34424 29.5093 8.43115 28.4255 6.44531 28.4255L3.86719 28.4255C3.15637 28.4255 2.57812 27.7879 2.57812 27.0042C2.57812 26.2205 3.15637 25.5829 3.86719 25.5829L40.1328 25.5829C40.8436 25.5829 41.4219 26.2205 41.4219 27.0042C41.4219 27.7879 40.8436 28.4255 40.1328 28.4255Z" fill="#000000" fill-opacity="1.000000" fill-rule="nonzero"/>
	<path id="Vector" d="M15.5547 12.7915C15.5547 13.5765 14.9775 14.2128 14.2656 14.2128C13.5537 14.2128 12.9766 13.5765 12.9766 12.7915C12.9766 12.0066 13.5537 11.3702 14.2656 11.3702C14.9775 11.3702 15.5547 12.0066 15.5547 12.7915Z" fill="#000000" fill-opacity="1.000000" fill-rule="evenodd"/>
	<path id="Vector" d="M31.0234 12.7915C31.0234 13.5765 30.4463 14.2128 29.7344 14.2128C29.0225 14.2128 28.4453 13.5765 28.4453 12.7915C28.4453 12.0066 29.0225 11.3702 29.7344 11.3702C30.4463 11.3702 31.0234 12.0066 31.0234 12.7915Z" fill="#000000" fill-opacity="1.000000" fill-rule="evenodd"/>
	<path id="Vector" d="M25.8672 9.94885C25.8672 10.7338 25.29 11.3701 24.5781 11.3701C23.8662 11.3701 23.2891 10.7338 23.2891 9.94885C23.2891 9.16394 23.8662 8.52759 24.5781 8.52759C25.29 8.52759 25.8672 9.16394 25.8672 9.94885Z" fill="#000000" fill-opacity="1.000000" fill-rule="evenodd"/>
	<path id="Vector" d="M20.7109 7.10632C20.7109 7.8913 20.1338 8.52759 19.4219 8.52759C18.71 8.52759 18.1328 7.8913 18.1328 7.10632C18.1328 6.32141 18.71 5.68506 19.4219 5.68506C20.1338 5.68506 20.7109 6.32141 20.7109 7.10632Z" fill="#000000" fill-opacity="1.000000" fill-rule="evenodd"/>
</svg>
