<svg width="20.000854" height="19.333252" viewBox="0 0 20.0009 19.3333" fill="none" xmlns="http://www.w3.org/2000/svg" xmlns:xlink="http://www.w3.org/1999/xlink">
	<path d="M0.750549 0.750488L2.83057 1.10632L3.79358 12.4462C3.87054 13.3723 4.65356 14.0829 5.59357 14.08L16.5026 14.08C17.3996 14.0819 18.1606 13.4296 18.2876 12.5519L19.2366 6.07007C19.3426 5.34558 18.8336 4.67346 18.1016 4.5686C18.0376 4.55981 3.16455 4.55481 3.16455 4.55481" stroke="#000000" stroke-opacity="1.000000" stroke-width="1.500000" stroke-linejoin="round" stroke-linecap="round"/>
	<path d="M12.1255 8.20813L14.8985 8.20813" stroke="#000000" stroke-opacity="1.000000" stroke-width="1.500000" stroke-linejoin="round" stroke-linecap="round"/>
	<path d="M5.15485 17.5063C5.45581 17.5063 5.69879 17.7477 5.69879 18.0443C5.69879 18.3419 5.45581 18.5833 5.15485 18.5833C4.85388 18.5833 4.6109 18.3419 4.6109 18.0443C4.6109 17.7477 4.85388 17.5063 5.15485 17.5063Z" fill="#000000" fill-opacity="1.000000" fill-rule="evenodd"/>
	<path d="M5.69879 18.0443C5.69879 18.3419 5.45581 18.5833 5.15485 18.5833C4.85388 18.5833 4.6109 18.3419 4.6109 18.0443C4.6109 17.7477 4.85388 17.5063 5.15485 17.5063C5.45581 17.5063 5.69879 17.7477 5.69879 18.0443Z" stroke="#000000" stroke-opacity="1.000000" stroke-width="1.500000" stroke-linejoin="round"/>
	<path d="M16.4352 17.5063C16.7361 17.5063 16.9802 17.7477 16.9802 18.0443C16.9802 18.3419 16.7361 18.5833 16.4352 18.5833C16.1342 18.5833 15.8912 18.3419 15.8912 18.0443C15.8912 17.7477 16.1342 17.5063 16.4352 17.5063Z" fill="#000000" fill-opacity="1.000000" fill-rule="evenodd"/>
	<path d="M16.9802 18.0443C16.9802 18.3419 16.7361 18.5833 16.4352 18.5833C16.1342 18.5833 15.8912 18.3419 15.8912 18.0443C15.8912 17.7477 16.1342 17.5063 16.4352 17.5063C16.7361 17.5063 16.9802 17.7477 16.9802 18.0443Z" stroke="#000000" stroke-opacity="1.000000" stroke-width="1.500000" stroke-linejoin="round"/>
</svg>
