<svg width="16.000000" height="16.000000" viewBox="0 0 16 16" fill="none" xmlns="http://www.w3.org/2000/svg" xmlns:xlink="http://www.w3.org/1999/xlink">
	<desc>
			Created with Pixso.
	</desc>
	<defs>
		<clipPath id="clip3197_367">
			<rect id="star 4" width="16.000000" height="16.000000" transform="matrix(-1 0 0 1 16 0)" fill="white" fill-opacity="0"/>
		</clipPath>
	</defs>
	<rect id="star 4" width="16.000000" height="16.000000" transform="matrix(-1 0 0 1 16 0)" fill="#FFFFFF" fill-opacity="0"/>
	<g clip-path="url(#clip3197_367)">
		<path id="Vector" d="M0.02 6.16C0.07 5.99 0.22 5.87 0.4 5.84L5.36 5.12L7.57 0.62C7.65 0.46 7.82 0.36 7.99 0.36C8.17 0.36 8.34 0.46 8.42 0.62L10.63 5.12L15.59 5.84C15.77 5.87 15.92 5.99 15.97 6.16C16.03 6.33 15.98 6.52 15.85 6.64L12.26 10.14L13.11 15.08C13.14 15.25 13.07 15.43 12.93 15.54C12.84 15.6 12.75 15.63 12.65 15.63C12.57 15.63 12.5 15.61 12.43 15.57L8 13.24L3.56 15.57C3.4 15.66 3.21 15.64 3.07 15.54C2.92 15.43 2.85 15.25 2.88 15.08L3.73 10.14L0.14 6.64C0.01 6.52 -0.04 6.33 0.02 6.16Z" fill="#C1C1C1" fill-opacity="0.300000" fill-rule="nonzero"/>
	</g>
</svg>
