<svg width="31.885742" height="36.000000" viewBox="0 0 31.8857 36" fill="none" xmlns="http://www.w3.org/2000/svg" xmlns:xlink="http://www.w3.org/1999/xlink">
	<desc>
			Created with Pixso.
	</desc>
	<defs>
		<clipPath id="clip669_558">
			<rect id="ic-filter 1" width="31.885714" height="36.000000" fill="white" fill-opacity="0"/>
		</clipPath>
	</defs>
	<rect id="ic-filter 1" width="31.885714" height="36.000000" fill="#FFFFFF" fill-opacity="0"/>
	<g clip-path="url(#clip669_558)">
		<path id="Vector" d="M13.7804 28.125L1.13879 28.125C0.510132 28.125 0 28.629 0 29.25C0 29.8711 0.510193 30.375 1.13879 30.375L13.7803 30.375C14.3076 32.9423 16.6046 34.875 19.3593 34.875C22.114 34.875 24.4108 32.9423 24.938 30.375L30.7469 30.375C31.3755 30.375 31.8857 29.8711 31.8857 29.25C31.8857 28.629 31.3755 28.125 30.7469 28.125L24.9383 28.125C24.411 25.5579 22.114 23.625 19.3593 23.625C16.6047 23.625 14.3076 25.5579 13.7804 28.125ZM22.7755 29.25C22.7755 31.1141 21.2463 32.625 19.3593 32.625C17.4723 32.625 15.9429 31.1141 15.9429 29.25C15.9429 27.386 17.4723 25.875 19.3593 25.875C21.2463 25.875 22.7755 27.386 22.7755 29.25ZM2.39264 16.875L1.13879 16.875C0.510132 16.875 0 17.379 0 18C0 18.621 0.510132 19.125 1.13879 19.125L2.39252 19.125C2.9198 21.6923 5.21674 23.625 7.97144 23.625C10.7262 23.625 13.023 21.6923 13.5503 19.125L30.7469 19.125C31.3755 19.125 31.8857 18.6211 31.8857 18C31.8857 17.379 31.3755 16.875 30.7469 16.875L13.5504 16.875C13.0231 14.3077 10.7262 12.375 7.9715 12.375C5.2168 12.375 2.91986 14.3077 2.39264 16.875ZM11.3878 18C11.3878 19.8641 9.8584 21.375 7.97144 21.375C6.08447 21.375 4.55511 19.8641 4.55511 18C4.55511 16.1359 6.08447 14.625 7.97144 14.625C9.8584 14.625 11.3878 16.1359 11.3878 18ZM18.3355 5.625L1.13879 5.625C0.510132 5.625 0 6.12903 0 6.75C0 7.37097 0.510132 7.875 1.13879 7.875L18.3355 7.875C18.8627 10.4423 21.1597 12.375 23.9143 12.375C26.669 12.375 28.9659 10.4423 29.4932 7.875L30.7469 7.875C31.3755 7.875 31.8857 7.37097 31.8857 6.75C31.8857 6.12903 31.3755 5.625 30.7469 5.625L29.4932 5.625C28.9659 3.05774 26.669 1.125 23.9143 1.125C21.1597 1.125 18.8628 3.05774 18.3355 5.625ZM27.3306 6.75C27.3306 8.61414 25.8013 10.125 23.9143 10.125C22.0274 10.125 20.498 8.61414 20.498 6.75C20.498 4.88586 22.0274 3.375 23.9143 3.375C25.8013 3.375 27.3306 4.88586 27.3306 6.75Z" fill="#FF6838" fill-opacity="1.000000" fill-rule="nonzero"/>
	</g>
</svg>
