<svg width="44.000000" height="44.000000" viewBox="0 0 44 44" fill="none" xmlns="http://www.w3.org/2000/svg" xmlns:xlink="http://www.w3.org/1999/xlink">
		<clipPath id="clip20162_89">
			<rect width="44.000000" height="44.000000" transform="matrix(1 -5.55112e-17 -5.55112e-17 -1 0 44)" fill="white" fill-opacity="0"/>
		</clipPath>
	</defs>
	<rect width="44.000000" height="44.000000" transform="matrix(1 -5.55112e-17 -5.55112e-17 -1 0 44)" fill="#FFFFFF" fill-opacity="0"/>
	<g clip-path="url(#clip20162_89)">
		<path d="M43.7453 43.7521C43.5105 43.9838 43.1634 44.0611 42.8529 43.9499L7.15857 31.2228C5.91852 31.9811 4.34558 32.1587 2.90295 31.5613C0.508301 30.5694 -0.632996 27.8141 0.358887 25.4193C2.698 19.7725 6.07526 14.718 10.3972 10.3961C14.719 6.07422 19.7735 2.6969 25.4203 0.357849C26.0068 0.11499 26.6146 0 27.2131 0C29.0586 6.10352e-05 30.8134 1.09363 31.5623 2.90204C32.0662 4.11871 32.0186 5.42822 31.5366 6.55261L43.9547 42.8624C44.0613 43.1745 43.98 43.5203 43.7453 43.7521ZM12.5632 31.3252L16.3461 32.6739C16.7903 32.2007 17.0067 31.5493 16.92 30.8905C16.8436 30.3104 16.5458 29.7947 16.0817 29.4385C15.6176 29.0823 15.0428 28.9284 14.4623 29.0046C13.8823 29.081 13.3667 29.3786 13.0105 29.8428C12.6823 30.2706 12.5261 30.7924 12.5632 31.3252ZM29.9744 3.55988C29.3451 2.04065 27.597 1.31665 26.0781 1.94604C15.0747 6.50372 6.50476 15.0737 1.9469 26.0771C1.64209 26.813 1.64209 27.6235 1.9469 28.3595C2.25171 29.0954 2.82483 29.6685 3.56073 29.9733C4.29663 30.2781 5.10718 30.2781 5.84308 29.9733C6.57892 29.6685 7.15204 29.0954 7.45685 28.3595C9.40771 23.6495 12.2247 19.4336 15.8297 15.8287C19.4346 12.2238 23.6505 9.40686 28.3604 7.45593C29.8796 6.82678 30.6036 5.07892 29.9744 3.55988ZM37.6093 29.6202C37.5315 29.6221 37.4536 29.6265 37.376 29.6367C36.796 29.7131 36.2803 30.0108 35.9242 30.4749C35.568 30.9391 35.4139 31.5142 35.4902 32.0942C35.6479 33.2917 36.7501 34.1375 37.9479 33.98C38.3175 33.9314 38.6644 33.7881 38.9603 33.5701L37.6093 29.6202ZM39.5315 35.241C39.1129 35.469 38.6528 35.6208 38.1722 35.6841C36.0349 35.9662 34.0676 34.4557 33.7862 32.3185C33.6499 31.2833 33.9249 30.257 34.5605 29.4285C35.1729 28.6306 36.0494 28.1093 37.0382 27.9503L35.3301 22.9557L33.3658 24.4631C32.9893 24.7518 32.4497 24.681 32.1608 24.3044C31.8719 23.9279 31.943 23.3884 32.3195 23.0995L34.7433 21.2397L30.3009 8.24982C29.9283 8.57379 29.4992 8.84485 29.0186 9.04395C19.9109 12.8165 12.8176 19.9098 9.04523 29.0173C8.91412 29.334 8.75116 29.6281 8.56323 29.899L10.8646 30.7195C10.9449 30.0262 11.2111 29.3648 11.647 28.7966C12.2826 27.9682 13.2029 27.437 14.2381 27.3007C14.4115 27.2779 14.5844 27.2665 14.7565 27.2665C15.6114 27.2665 16.4384 27.5458 17.1281 28.075C17.9566 28.7107 18.4878 29.6309 18.6241 30.6662C18.7465 31.5956 18.5295 32.5162 18.0425 33.2788L28.7252 37.0877L29.13 36.1103C29.2672 35.7793 29.5871 35.5795 29.9243 35.5795C30.0339 35.5795 30.1453 35.6006 30.2529 35.6451C30.6913 35.8268 30.8995 36.3296 30.718 36.768L30.3462 37.6656L41.7517 41.7324L39.5315 35.241Z" fill="#000000" fill-opacity="1.000000" fill-rule="nonzero"/>
		<path d="M9.28125 20.9451C9.27863 20.9492 9.27155 20.9601 9.26874 20.9641C9.00562 21.3588 8.47308 21.4647 8.07819 21.2018C7.68402 20.9394 7.57709 20.4066 7.83801 20.0118C8.00256 19.7589 8.27789 19.621 8.5592 19.621C8.71832 19.621 8.87927 19.6652 9.02301 19.7576C9.42224 20.0142 9.53784 20.546 9.28125 20.9451Z" fill="#000000" fill-opacity="1.000000" fill-rule="nonzero"/>
		<path d="M7.9743 23.08C7.13684 24.5483 6.38403 26.0851 5.73682 27.6473C5.55524 28.0859 5.05225 28.2939 4.61407 28.1123C4.17554 27.9307 3.96741 27.428 4.14905 26.9896C4.82367 25.361 5.60846 23.7591 6.48138 22.2285C6.63995 21.9506 6.93005 21.7947 7.22864 21.7947C7.37299 21.7947 7.51935 21.8312 7.65356 21.9077C8.0658 22.1429 8.20953 22.6678 7.9743 23.08Z" fill="#000000" fill-opacity="1.000000" fill-rule="nonzero"/>
		<path d="M26.8926 33.0012C26.7223 33.0237 26.5493 33.035 26.3784 33.035C24.4262 33.035 22.7616 31.5737 22.5065 29.6358C22.2252 27.4987 23.7348 25.5311 25.8719 25.2497C26.0422 25.2272 26.2152 25.2159 26.386 25.2159C28.3383 25.2159 30.0028 26.6772 30.258 28.6153C30.5392 30.7523 29.0296 32.7198 26.8926 33.0012ZM28.554 28.8396C28.411 27.7536 27.479 26.9347 26.386 26.9347C26.29 26.9347 26.1924 26.941 26.0963 26.9537C24.8987 27.1115 24.053 28.2139 24.2106 29.4115C24.3536 30.4974 25.2855 31.3162 26.3784 31.3162C26.4745 31.3162 26.572 31.3098 26.6682 31.2971C27.8657 31.1393 28.7116 30.0369 28.554 28.8396Z" fill="#000000" fill-opacity="1.000000" fill-rule="nonzero"/>
		<path d="M26.669 22.3116C26.4986 22.3341 26.3257 22.3455 26.1548 22.3455C24.2026 22.3455 22.538 20.8841 22.2829 18.9461C22.1465 17.9108 22.4216 16.8846 23.0573 16.056C23.6928 15.2276 24.613 14.6964 25.6483 14.5599C25.8185 14.5375 25.9915 14.5262 26.1622 14.5262C28.1144 14.5262 29.7792 15.9876 30.0343 17.9257C30.3157 20.0626 28.806 22.0301 26.669 22.3116ZM28.3304 18.1499C28.1874 17.0639 27.2554 16.245 26.1624 16.245C26.0664 16.245 25.9689 16.2515 25.8728 16.2641C25.2927 16.3406 24.7771 16.6382 24.4209 17.1024C24.0646 17.5666 23.9106 18.1417 23.987 18.7218C24.13 19.8077 25.062 20.6266 26.1548 20.6266C26.2509 20.6266 26.3484 20.6202 26.4446 20.6075C27.642 20.4498 28.4879 19.3474 28.3304 18.1499Z" fill="#000000" fill-opacity="1.000000" fill-rule="nonzero"/>
		<path d="M21.001 25.8718L18.3596 26.2196C17.8893 26.2821 17.4574 25.9504 17.3954 25.4799C17.3334 25.0093 17.6647 24.5776 18.1351 24.5156L20.7766 24.1678C20.8146 24.1628 20.8524 24.1604 20.8898 24.1604C21.3144 24.1604 21.6838 24.4752 21.7407 24.9076C21.8028 25.3781 21.4716 25.8099 21.001 25.8718Z" fill="#000000" fill-opacity="1.000000" fill-rule="nonzero"/>
		<path d="M19.6616 19.5298L19.4283 21.3022C19.3664 21.7728 18.9348 22.1042 18.4642 22.0421C17.9936 21.9801 17.6624 21.5485 17.7244 21.0779L17.9577 19.3056C18.0146 18.873 18.3839 18.5583 18.8085 18.5583C18.8459 18.5583 18.8837 18.5607 18.9218 18.5657C19.3923 18.6277 19.7235 19.0593 19.6616 19.5298Z" fill="#000000" fill-opacity="1.000000" fill-rule="nonzero"/>
	</g>
</svg>
