<svg width="200.000000" height="39.000000" viewBox="0 0 200 39" fill="none" xmlns="http://www.w3.org/2000/svg" xmlns:xlink="http://www.w3.org/1999/xlink">
	<desc>
			Created with Pixso.
	</desc>
	<defs/>
	<path id="SimpleFood" d="M119.594 31Q119.263 31 119.03 30.7744Q118.796 30.5408 118.796 30.2104L118.796 8.72339Q118.796 8.36084 119.03 8.13525Q119.263 7.90161 119.594 7.90161L133.91 7.90161Q134.281 7.90161 134.507 8.13525Q134.74 8.36084 134.74 8.72339L134.74 11.0356Q134.74 11.3982 134.507 11.6157Q134.281 11.8252 133.91 11.8252L123.324 11.8252L123.324 18.0933L133.258 18.0933Q133.62 18.0933 133.846 18.3269Q134.08 18.5605 134.08 18.9231L134.08 21.2354Q134.08 21.5657 133.846 21.7993Q133.62 22.0249 133.258 22.0249L123.324 22.0249L123.324 30.2104Q123.324 30.5408 123.09 30.7744Q122.857 31 122.494 31L119.594 31ZM146.913 31.3303Q144.278 31.3303 142.473 30.4119Q140.677 29.4854 139.734 27.8015Q138.8 26.1177 138.663 23.8699Q138.63 23.2817 138.63 22.4277Q138.63 21.5657 138.663 20.9695Q138.8 18.6895 139.766 17.0217Q140.741 15.354 142.538 14.4355Q144.343 13.509 146.913 13.509Q149.491 13.509 151.287 14.4355Q153.084 15.354 154.059 17.0217Q155.034 18.6895 155.163 20.9695Q155.203 21.5657 155.203 22.4277Q155.203 23.2817 155.163 23.8699Q155.034 26.1177 154.091 27.8015Q153.157 29.4854 151.352 30.4119Q149.555 31.3303 146.913 31.3303ZM146.913 28.0593Q148.669 28.0593 149.62 26.9556Q150.578 25.8518 150.675 23.7087Q150.707 23.2092 150.707 22.4197Q150.707 21.6301 150.675 21.1306Q150.578 18.9875 149.62 17.8838Q148.669 16.78 146.913 16.78Q145.164 16.78 144.206 17.8838Q143.255 18.9875 143.15 21.1306Q143.118 21.6301 143.118 22.4197Q143.118 23.2092 143.15 23.7087Q143.255 25.8518 144.206 26.9556Q145.164 28.0593 146.913 28.0593ZM167.868 31.3303Q165.233 31.3303 163.428 30.4119Q161.632 29.4854 160.689 27.8015Q159.755 26.1177 159.618 23.8699Q159.585 23.2817 159.585 22.4277Q159.585 21.5657 159.618 20.9695Q159.755 18.6895 160.721 17.0217Q161.696 15.354 163.493 14.4355Q165.298 13.509 167.868 13.509Q170.446 13.509 172.242 14.4355Q174.039 15.354 175.014 17.0217Q175.989 18.6895 176.118 20.9695Q176.158 21.5657 176.158 22.4277Q176.158 23.2817 176.118 23.8699Q175.989 26.1177 175.046 27.8015Q174.112 29.4854 172.307 30.4119Q170.51 31.3303 167.868 31.3303ZM167.868 28.0593Q169.624 28.0593 170.575 26.9556Q171.533 25.8518 171.63 23.7087Q171.662 23.2092 171.662 22.4197Q171.662 21.6301 171.63 21.1306Q171.533 18.9875 170.575 17.8838Q169.624 16.78 167.868 16.78Q166.119 16.78 165.161 17.8838Q164.21 18.9875 164.105 21.1306Q164.073 21.6301 164.073 22.4197Q164.073 23.2092 164.105 23.7087Q164.21 25.8518 165.161 26.9556Q166.119 28.0593 167.868 28.0593ZM187.606 31.3303Q185.89 31.3303 184.585 30.7583Q183.28 30.1782 182.418 29.1228Q181.564 28.0593 181.104 26.6252Q180.645 25.1912 180.573 23.4751Q180.54 22.8789 180.54 22.4036Q180.54 21.9282 180.573 21.332Q180.645 19.6804 181.088 18.2625Q181.531 16.8445 182.402 15.7729Q183.28 14.7014 184.585 14.1052Q185.89 13.509 187.606 13.509Q189.387 13.509 190.619 14.1213Q191.86 14.7336 192.69 15.6843L192.69 8.36084Q192.69 8.03052 192.899 7.80493Q193.117 7.57129 193.479 7.57129L196.283 7.57129Q196.613 7.57129 196.839 7.80493Q197.073 8.03052 197.073 8.36084L197.073 30.2104Q197.073 30.5408 196.839 30.7744Q196.613 31 196.283 31L193.681 31Q193.31 31 193.093 30.7744Q192.883 30.5408 192.883 30.2104L192.883 28.9858Q192.061 30.009 190.788 30.6697Q189.516 31.3303 187.606 31.3303ZM188.823 27.8015Q190.208 27.8015 191.03 27.1731Q191.86 26.5447 192.255 25.5698Q192.658 24.595 192.69 23.5718Q192.722 22.9836 192.722 22.3069Q192.722 21.6301 192.69 21.0339Q192.658 20.043 192.223 19.1406Q191.796 18.2302 190.966 17.634Q190.144 17.0378 188.823 17.0378Q187.437 17.0378 186.631 17.6501Q185.826 18.2625 185.463 19.2534Q185.1 20.2444 185.028 21.4287Q184.996 22.4197 185.028 23.4106Q185.1 24.595 185.463 25.5859Q185.826 26.5769 186.631 27.1892Q187.437 27.8015 188.823 27.8015Z" fill="#363853" fill-opacity="1.000000" fill-rule="evenodd"/>
	<path id="SimpleFood" d="M10.5945 31.3303Q7.5249 31.3303 5.4624 30.428Q3.3999 29.5176 2.32837 28.0513Q1.25684 26.5769 1.18433 24.9575Q1.18433 24.6675 1.38574 24.4661Q1.58716 24.2646 1.8772 24.2646L4.81787 24.2646Q5.24487 24.2646 5.4624 24.45Q5.67993 24.6272 5.84106 24.8931Q6.04248 25.5215 6.59839 26.1338Q7.16235 26.7461 8.12915 27.1409Q9.104 27.5356 10.5945 27.5356Q12.9712 27.5356 14.1394 26.7461Q15.3157 25.9485 15.3157 24.595Q15.3157 23.6443 14.6873 23.0642Q14.0588 22.4841 12.7537 22.0088Q11.4485 21.5254 9.30542 21.0017Q6.83203 20.4055 5.16431 19.5676Q3.49658 18.7217 2.65063 17.4407Q1.81274 16.1516 1.81274 14.1697Q1.81274 12.2522 2.85205 10.7698Q3.89136 9.28735 5.82495 8.43335Q7.75854 7.57129 10.4253 7.57129Q12.5764 7.57129 14.22 8.15137Q15.8716 8.72339 16.9592 9.66602Q18.0549 10.6086 18.627 11.6802Q19.207 12.7517 19.2393 13.7749Q19.2393 14.0408 19.054 14.2583Q18.8767 14.4678 18.5464 14.4678L15.4768 14.4678Q15.2109 14.4678 14.9451 14.3389Q14.6873 14.2019 14.5181 13.8394Q14.3247 12.8162 13.229 12.0911Q12.1414 11.366 10.4253 11.366Q8.64478 11.366 7.55713 12.0266Q6.46948 12.6873 6.46948 14.073Q6.46948 14.9915 7.00928 15.6038Q7.55713 16.2161 8.75757 16.6833Q9.96606 17.1426 11.948 17.6663Q14.7517 18.2947 16.5322 19.1245Q18.3127 19.9463 19.1345 21.2192Q19.9644 22.4841 19.9644 24.4338Q19.9644 26.6091 18.7881 28.1479Q17.6199 29.6787 15.509 30.5085Q13.3982 31.3303 10.5945 31.3303ZM25.5779 31Q25.2476 31 25.0139 30.7744Q24.7803 30.5408 24.7803 30.2104L24.7803 14.6289Q24.7803 14.2986 25.0139 14.073Q25.2476 13.8394 25.5779 13.8394L28.3172 13.8394Q28.6797 13.8394 28.8892 14.073Q29.1067 14.2986 29.1067 14.6289L29.1067 30.2104Q29.1067 30.5408 28.8892 30.7744Q28.6797 31 28.3172 31L25.5779 31ZM25.4409 11.0034Q25.1106 11.0034 24.877 10.7698Q24.6514 10.5361 24.6514 10.2139L24.6514 7.83716Q24.6514 7.50684 24.877 7.27319Q25.1106 7.03955 25.4409 7.03955L28.4461 7.03955Q28.8086 7.03955 29.0342 7.27319Q29.2678 7.50684 29.2678 7.83716L29.2678 10.2139Q29.2678 10.5361 29.0342 10.7698Q28.8086 11.0034 28.4461 11.0034L25.4409 11.0034ZM35.7089 31Q35.3786 31 35.1449 30.7744Q34.9113 30.5408 34.9113 30.2104L34.9113 14.6289Q34.9113 14.2986 35.1449 14.073Q35.3786 13.8394 35.7089 13.8394L38.279 13.8394Q38.6093 13.8394 38.8349 14.073Q39.0685 14.2986 39.0685 14.6289L39.0685 15.7568Q39.7614 14.8303 40.9296 14.1858Q42.1059 13.5413 43.7253 13.509Q47.4877 13.4446 48.9701 16.4497Q49.7275 15.1284 51.1615 14.3228Q52.6037 13.509 54.352 13.509Q56.068 13.509 57.4699 14.3066Q58.8717 15.0962 59.6774 16.6995Q60.4911 18.2947 60.4911 20.7358L60.4911 30.2104Q60.4911 30.5408 60.2575 30.7744Q60.0238 31 59.6935 31L56.9945 31Q56.6642 31 56.4306 30.7744Q56.1969 30.5408 56.1969 30.2104L56.1969 21.0017Q56.1969 19.5193 55.7699 18.6492Q55.3429 17.771 54.6178 17.4084Q53.8927 17.0378 52.9985 17.0378Q52.2734 17.0378 51.5483 17.4084Q50.8232 17.771 50.3559 18.6492Q49.8966 19.5193 49.8966 21.0017L49.8966 30.2104Q49.8966 30.5408 49.663 30.7744Q49.4374 31 49.1071 31L46.4001 31Q46.0697 31 45.8361 30.7744Q45.6025 30.5408 45.6025 30.2104L45.6025 21.0017Q45.6025 19.5193 45.1432 18.6492Q44.684 17.771 43.9589 17.4084Q43.2338 17.0378 42.404 17.0378Q41.6466 17.0378 40.9215 17.4246Q40.1964 17.8032 39.7292 18.6653Q39.2699 19.5193 39.2699 21.0017L39.2699 30.2104Q39.2699 30.5408 39.0363 30.7744Q38.8107 31 38.4804 31L35.7089 31ZM66.9261 37.2681Q66.5958 37.2681 66.3622 37.0344Q66.1285 36.8088 66.1285 36.4785L66.1285 14.6289Q66.1285 14.2986 66.3622 14.073Q66.5958 13.8394 66.9261 13.8394L69.5284 13.8394Q69.891 13.8394 70.1085 14.073Q70.326 14.2986 70.326 14.6289L70.326 15.9502Q71.1156 14.8948 72.3966 14.2019Q73.6856 13.509 75.6031 13.509Q77.3514 13.509 78.6405 14.073Q79.9295 14.6289 80.7835 15.6682Q81.6456 16.7075 82.1048 18.1335Q82.5641 19.5515 82.6285 21.2676Q82.6688 21.8235 82.6688 22.4197Q82.6688 23.0159 82.6285 23.604Q82.5963 25.2556 82.1371 26.6575Q81.6778 28.0593 80.7997 29.1067Q79.9295 30.146 78.6405 30.7422Q77.3514 31.3303 75.6031 31.3303Q73.8226 31.3303 72.5658 30.6858Q71.317 30.0413 70.5194 28.9858L70.5194 36.4785Q70.5194 36.8088 70.3019 37.0344Q70.0924 37.2681 69.7298 37.2681L66.9261 37.2681ZM74.3785 27.8015Q75.8045 27.8015 76.5941 27.1892Q77.3836 26.5769 77.7462 25.5859Q78.1087 24.595 78.1732 23.4106Q78.2135 22.4197 78.1732 21.4287Q78.1087 20.2444 77.7462 19.2534Q77.3836 18.2625 76.5941 17.6501Q75.8045 17.0378 74.3785 17.0378Q73.025 17.0378 72.1871 17.6663Q71.3492 18.2947 70.9625 19.2695Q70.5838 20.2444 70.5194 21.2676Q70.4872 21.8557 70.4872 22.5164Q70.4872 23.177 70.5194 23.8054Q70.5516 24.7964 70.9786 25.7068Q71.4137 26.6091 72.2355 27.2053Q73.0653 27.8015 74.3785 27.8015ZM88.6071 31Q88.2768 31 88.0432 30.7744Q87.8095 30.5408 87.8095 30.2104L87.8095 8.36084Q87.8095 8.03052 88.0432 7.80493Q88.2768 7.57129 88.6071 7.57129L91.3464 7.57129Q91.6767 7.57129 91.9023 7.80493Q92.1359 8.03052 92.1359 8.36084L92.1359 30.2104Q92.1359 30.5408 91.9023 30.7744Q91.6767 31 91.3464 31L88.6071 31ZM105.337 31.3303Q101.672 31.3303 99.5285 29.2195Q97.3854 27.1086 97.2162 23.2092Q97.184 22.8789 97.184 22.3713Q97.184 21.8557 97.2162 21.5657Q97.3532 19.052 98.3522 17.2554Q99.3593 15.4587 101.14 14.4839Q102.928 13.509 105.337 13.509Q108.012 13.509 109.825 14.6208Q111.638 15.7246 112.564 17.6904Q113.491 19.6482 113.491 22.2183L113.491 22.9111Q113.491 23.2415 113.257 23.4751Q113.023 23.7087 112.661 23.7087L101.704 23.7087Q101.704 23.7087 101.704 23.8054Q101.704 23.9021 101.704 23.9746Q101.736 25.1267 102.147 26.1016Q102.566 27.0764 103.371 27.6726Q104.177 28.2607 105.305 28.2607Q106.224 28.2607 106.852 27.9788Q107.48 27.6968 107.875 27.3342Q108.27 26.9717 108.439 26.7461Q108.737 26.3433 108.914 26.2627Q109.1 26.1821 109.462 26.1821L112.298 26.1821Q112.629 26.1821 112.838 26.3835Q113.056 26.5769 113.023 26.875Q112.991 27.4067 112.475 28.1641Q111.968 28.9214 111.009 29.6465Q110.058 30.3716 108.616 30.855Q107.182 31.3303 105.337 31.3303ZM101.704 20.9373L108.995 20.9373L108.995 20.8325Q108.995 19.5515 108.568 18.5767Q108.141 17.6018 107.311 17.062Q106.489 16.5142 105.337 16.5142Q104.177 16.5142 103.355 17.062Q102.534 17.6018 102.115 18.5767Q101.704 19.5515 101.704 20.8325L101.704 20.9373Z" fill="#FF6838" fill-opacity="1.000000" fill-rule="evenodd"/>
</svg>
