<?xml version="1.0" encoding="utf-8"?><svg viewBox="0 0 135 44" xmlns="http://www.w3.org/2000/svg" xmlns:xlink="http://www.w3.org/1999/xlink"><style>:root>svg{display:none}:root>svg:target{display:block}</style><svg viewBox="0 0 135 40" id="android" xmlns="http://www.w3.org/2000/svg"><defs><filter id="aab" x="9.973" y="7.141" width="23.09" height="25.721" filterUnits="userSpaceOnUse" color-interpolation-filters="sRGB"><feFlood flood-opacity="0" result="BackgroundImageFix"/><feBlend in="SourceGraphic" in2="BackgroundImageFix" result="shape"/><feColorMatrix in="SourceAlpha" values="0 0 0 0 0 0 0 0 0 0 0 0 0 0 0 0 0 0 127 0" result="hardAlpha"/><feOffset dy="-.15"/><feGaussianBlur/><feComposite in2="hardAlpha" operator="arithmetic" k2="-1" k3="1"/><feColorMatrix values="0 0 0 0 0 0 0 0 0 0 0 0 0 0 0 0 0 0 0.12 0"/><feBlend in2="shape" result="effect_innerShadow_1"/><feColorMatrix in="SourceAlpha" values="0 0 0 0 0 0 0 0 0 0 0 0 0 0 0 0 0 0 127 0" result="hardAlpha"/><feOffset dy=".15"/><feGaussianBlur/><feComposite in2="hardAlpha" operator="arithmetic" k2="-1" k3="1"/><feColorMatrix values="0 0 0 0 1 0 0 0 0 1 0 0 0 0 1 0 0 0 0.25 0"/><feBlend in2="effect_innerShadow_1" result="effect_innerShadow_2"/></filter><filter id="aac" x="10.436" y="20.001" width="16.686" height="12.861" filterUnits="userSpaceOnUse" color-interpolation-filters="sRGB"><feFlood flood-opacity="0" result="BackgroundImageFix"/><feBlend in="SourceGraphic" in2="BackgroundImageFix" result="shape"/><feColorMatrix in="SourceAlpha" values="0 0 0 0 0 0 0 0 0 0 0 0 0 0 0 0 0 0 127 0" result="hardAlpha"/><feOffset dy="-.15"/><feGaussianBlur/><feComposite in2="hardAlpha" operator="arithmetic" k2="-1" k3="1"/><feColorMatrix values="0 0 0 0 0 0 0 0 0 0 0 0 0 0 0 0 0 0 0.078 0"/><feBlend in2="shape" result="effect_innerShadow_1"/></filter><clipPath id="aaa"><rect rx="2.5" width="134" height="39" transform="translate(.5 .5)" fill-opacity="0"/></clipPath></defs><rect rx="2.5" width="134" height="39" transform="translate(.5 .5)"/><g clip-path="url(#aaa)"><path d="M68.136 21.75c-2.352 0-4.269 1.79-4.269 4.254 0 2.449 1.917 4.253 4.269 4.253 2.353 0 4.27-1.804 4.27-4.253-.001-2.464-1.918-4.253-4.27-4.253Zm0 6.833c-1.289 0-2.4-1.063-2.4-2.578 0-1.531 1.112-2.578 2.4-2.578 1.289 0 2.4 1.047 2.4 2.578 0 1.514-1.111 2.578-2.4 2.578Zm-9.314-6.832c-2.352 0-4.269 1.789-4.269 4.253 0 2.449 1.917 4.253 4.269 4.253 2.353 0 4.27-1.804 4.27-4.253 0-2.464-1.917-4.253-4.27-4.253Zm0 6.832c-1.289 0-2.4-1.063-2.4-2.578 0-1.531 1.112-2.578 2.4-2.578 1.289 0 2.4 1.047 2.4 2.578.001 1.514-1.111 2.578-2.4 2.578Zm-11.078-5.526v1.804h4.318c-.129 1.015-.467 1.756-.983 2.27-.628.629-1.611 1.322-3.335 1.322-2.658 0-4.736-2.143-4.736-4.801 0-2.658 2.078-4.801 4.736-4.801 1.434 0 2.481.564 3.254 1.289l1.273-1.273c-1.08-1.031-2.513-1.82-4.527-1.82-3.641 0-6.702 2.964-6.702 6.605 0 3.64 3.061 6.605 6.702 6.605 1.965 0 3.448-.645 4.607-1.853 1.192-1.192 1.563-2.868 1.563-4.221 0-.418-.032-.805-.097-1.127h-6.073Zm45.308 1.4c-.354-.95-1.434-2.706-3.641-2.706-2.191 0-4.012 1.724-4.012 4.253 0 2.384 1.805 4.253 4.221 4.253 1.949 0 3.077-1.192 3.545-1.885l-1.45-.967c-.483.709-1.144 1.176-2.095 1.176-.95 0-1.627-.435-2.062-1.29l5.687-2.351-.193-.482Zm-5.8 1.419c-.048-1.644 1.273-2.481 2.224-2.481.741 0 1.369.37 1.579.902l-3.803 1.579ZM82.629 30h1.868V17.499h-1.868v12.5Zm-3.062-7.298h-.064c-.419-.5-1.225-.951-2.239-.951-2.127 0-4.076 1.869-4.076 4.27 0 2.384 1.949 4.237 4.076 4.237 1.015 0 1.82-.451 2.239-.966h.064v.612c0 1.627-.87 2.497-2.271 2.497-1.144 0-1.853-.821-2.143-1.514l-1.627.677c.467 1.127 1.707 2.513 3.77 2.513 2.191 0 4.044-1.29 4.044-4.431V22.01h-1.772v.692h-.001Zm-2.142 5.88c-1.289 0-2.368-1.08-2.368-2.561 0-1.5 1.079-2.594 2.368-2.594 1.272 0 2.271 1.095 2.271 2.594 0 1.482-.999 2.562-2.271 2.562ZM101.806 17.5h-4.471v12.5H99.2v-4.735h2.605c2.068 0 4.102-1.497 4.102-3.882s-2.033-3.883-4.101-3.883Zm.048 6.025H99.2v-4.285h2.654c1.395 0 2.187 1.155 2.187 2.143 0 .968-.792 2.142-2.187 2.142Zm11.532-1.795c-1.351 0-2.75.595-3.329 1.914l1.656.69c.354-.69 1.014-.916 1.705-.916.965 0 1.946.579 1.962 1.608v.129c-.338-.193-1.062-.482-1.946-.482-1.785 0-3.603.98-3.603 2.814 0 1.673 1.464 2.75 3.104 2.75 1.254 0 1.946-.563 2.38-1.223h.064v.965h1.802v-4.793c.001-2.218-1.657-3.456-3.795-3.456Zm-.226 6.85c-.61 0-1.463-.305-1.463-1.061 0-.965 1.062-1.335 1.979-1.335.819 0 1.206.177 1.704.418a2.262 2.262 0 0 1-2.22 1.979Zm10.583-6.577-2.139 5.42h-.064l-2.22-5.42h-2.01l3.329 7.575-1.898 4.214h1.946L125.818 22h-2.075ZM106.937 30h1.865V17.499h-1.865v12.5Z"/><path d="M73.609 12.225c-.59.606-1.323.91-2.2.91-.877 0-1.61-.304-2.2-.91-.59-.606-.883-1.348-.883-2.225s.294-1.619.884-2.225c.589-.606 1.322-.91 2.199-.91.872 0 1.604.305 2.196.914.592.61.888 1.35.888 2.221 0 .877-.295 1.62-.884 2.225Zm-26.191-1.982c0 .838-.248 1.505-.745 2.003-.564.592-1.3.888-2.204.888-.866 0-1.603-.3-2.208-.9-.606-.6-.909-1.345-.909-2.233 0-.889.303-1.633.909-2.233.605-.6 1.342-.9 2.208-.9.43 0 .841.083 1.231.25.391.168.704.391.938.67l-.527.528c-.397-.475-.944-.712-1.643-.712-.632 0-1.178.222-1.639.666-.461.444-.691 1.021-.691 1.73 0 .71.23 1.286.691 1.73a2.282 2.282 0 0 0 1.639.666c.67 0 1.23-.223 1.676-.67.29-.29.458-.696.503-1.215h-2.179v-.72h2.907c.03.156.043.307.043.452Zm4.61-2.506h-2.732V9.64h2.464v.721h-2.464v1.902h2.732V13h-3.503V7h3.503v.737ZM55.28 13h-.771V7.737h-1.676V7h4.123v.737h-1.676V13Zm4.659 0V7h.771v6h-.771Zm4.19 0h-.77V7.737H61.68V7h4.123v.737h-1.676V13Zm11.447 0V7h.938l2.916 4.667h.033l-.033-1.156v-3.51h.771v6h-.805l-3.051-4.895h-.033l.033 1.156V13h-.769Zm-5.796-1.278a2.2 2.2 0 0 0 1.63.674c.643 0 1.187-.225 1.63-.674.444-.45.667-1.024.667-1.722s-.223-1.272-.667-1.722a2.2 2.2 0 0 0-1.63-.674c-.643 0-1.186.225-1.63.674-.443.45-.666 1.024-.666 1.722s.223 1.272.666 1.722Z" fill-rule="evenodd"/><path d="M46.673 12.246c-.564.592-1.3.888-2.204.888-.866 0-1.603-.3-2.208-.9-.606-.6-.909-1.345-.909-2.233 0-.889.303-1.633.909-2.233.605-.6 1.342-.9 2.208-.9.43 0 .841.083 1.231.25.391.168.704.391.938.67l-.527.528c-.397-.475-.944-.712-1.643-.712-.632 0-1.178.222-1.639.666-.461.444-.691 1.021-.691 1.73 0 .71.23 1.286.691 1.73a2.282 2.282 0 0 0 1.639.666c.67 0 1.23-.223 1.676-.67.29-.29.458-.696.503-1.215h-2.179v-.72h2.907c.03.156.043.307.043.452 0 .838-.248 1.505-.745 2.003Zm2.623-4.509V9.64h2.464v.721h-2.464v1.902h2.732V13h-3.503V7h3.503v.737h-2.732ZM54.508 13V7.737h-1.676V7h4.123v.737h-1.676V13h-.771Zm5.43-6h.771v6h-.771V7Zm3.42 6V7.737H61.68V7h4.123v.737h-1.676V13h-.77Zm8.05.134c-.876 0-1.61-.303-2.198-.909-.59-.606-.884-1.348-.884-2.225s.294-1.619.884-2.225c.589-.606 1.322-.91 2.199-.91.872 0 1.604.305 2.196.914.592.61.888 1.35.888 2.221 0 .877-.295 1.62-.884 2.225-.59.606-1.323.91-2.2.91Zm0-.738c.644 0 1.188-.225 1.63-.674.445-.45.668-1.024.668-1.722s-.223-1.272-.667-1.722a2.2 2.2 0 0 0-1.63-.674c-.643 0-1.186.225-1.63.674-.443.45-.666 1.024-.666 1.722s.223 1.272.666 1.722a2.2 2.2 0 0 0 1.63.674ZM75.576 7h.938l2.916 4.667h.033l-.033-1.156v-3.51h.771v6h-.805l-3.051-4.895h-.033l.033 1.156V13h-.769V7Z"/><g filter="url(#aab)"><path d="M10.436 7.538c-.291.308-.463.786-.463 1.405v22.116c0 .62.172 1.097.463 1.405l.074.072 12.389-12.39v-.291L10.51 7.465l-.074.073ZM27.028 24.278l-4.129-4.13v-.293l4.13-4.13.093.053 4.893 2.78c1.397.794 1.397 2.093 0 2.888l-4.893 2.78-.094.052Z"/><g filter="url(#aac)"><path d="m27.122 24.225-4.224-4.224-12.462 12.463c.46.488 1.221.548 2.078.062l14.608-8.301Z"/></g><path d="m27.122 15.777-14.608-8.3c-.857-.487-1.618-.426-2.078.062l12.463 12.463 4.223-4.225Z"/></g></g><rect rx="2.5" width="134" height="39" transform="translate(.5 .5)"/></svg><svg viewBox="0 0 120 40" id="apple" xmlns="http://www.w3.org/2000/svg"><rect rx="3.5" width="119" height="39" transform="translate(.5 .5)"/><path d="M74.563 30.791c-2.753 0-4.603-1.42-4.74-3.64h1.91c.163 1.18 1.316 1.928 2.976 1.928 1.549 0 2.684-.8 2.684-1.901 0-.947-.722-1.515-2.366-1.902l-1.6-.387c-2.245-.525-3.27-1.609-3.27-3.433 0-2.21 1.808-3.682 4.518-3.682 2.52 0 4.362 1.471 4.474 3.562h-1.876c-.18-1.144-1.179-1.859-2.624-1.859-1.523 0-2.538.732-2.538 1.85 0 .886.654 1.394 2.271 1.772l1.368.336c2.547.594 3.596 1.626 3.596 3.493 0 2.375-1.84 3.863-4.783 3.863ZM45.49 30.49h-2.048l-1.136-3.295h-4.732l-1.144 3.295h-1.979l4.483-12.415h2.073l4.483 12.415Zm36.035-8.998V19.2h1.785v2.29h1.958v1.503H83.31v4.649c0 .946.39 1.361 1.279 1.361.274 0 .431-.017.68-.042v1.486c-.29.05-.622.092-.97.092-1.985 0-2.773-.698-2.773-2.44v-5.106H80.09v-1.502h1.436Zm-41.507-1.163h-.146l-1.807 5.248h3.751l-1.798-5.248Zm54.563 5.637c0 2.93-1.619 4.698-4.259 4.698-2.648 0-4.266-1.768-4.266-4.698 0-2.914 1.627-4.69 4.266-4.69 2.632 0 4.259 1.776 4.259 4.69Zm10.971 3.18c1.079 0 1.818-.391 2.15-1.097h1.718c-.407 1.62-1.851 2.615-3.918 2.615-2.59 0-4.175-1.776-4.175-4.665 0-2.889 1.618-4.723 4.167-4.723 2.515 0 4.034 1.718 4.034 4.557v.623h-6.384v.1c.059 1.585.98 2.59 2.408 2.59Zm-57.057-6.201c.548-1.03 1.61-1.644 2.839-1.644 2.3 0 3.752 1.793 3.752 4.665s-1.453 4.673-3.735 4.673c-1.287 0-2.308-.564-2.781-1.519h-.141v4.375h-1.785V21.45h1.718v1.495h.133Zm9.997 0c.548-1.03 1.61-1.644 2.839-1.644 2.3 0 3.752 1.793 3.752 4.665s-1.453 4.673-3.736 4.673c-1.286 0-2.307-.564-2.78-1.519h-.142v4.375h-1.784V21.45h1.718v1.495h.133ZM97.75 30.49h-1.784v-9.04h1.718v1.387h.133c.257-.889 1.261-1.536 2.44-1.536.266 0 .606.025.797.075v1.76c-.149-.05-.681-.108-.996-.108-1.353 0-2.308.854-2.308 2.125v5.337Zm9.96-5.354c-.042-1.42-.905-2.341-2.225-2.341s-2.241.93-2.341 2.34h4.566Zm-19.811.83c0 1.976.871 3.113 2.423 3.113 1.544 0 2.424-1.146 2.424-3.113 0-1.959-.88-3.105-2.424-3.105-1.552 0-2.423 1.146-2.423 3.105Zm-39.504.008c0 1.884.938 3.063 2.433 3.063 1.519 0 2.423-1.154 2.423-3.071 0-1.91-.904-3.063-2.415-3.063-1.503 0-2.44 1.179-2.44 3.071Zm9.997 0c0 1.884.938 3.063 2.432 3.063 1.52 0 2.424-1.154 2.424-3.071 0-1.91-.905-3.063-2.415-3.063-1.503 0-2.44 1.179-2.44 3.071ZM59.09 14.7h.892V8.416h-.892V14.7Zm14.123.074c.623 0 1.15-.294 1.42-.788h.07v.714h.855V8.416h-.892v2.482h-.067c-.245-.498-.768-.793-1.386-.793-1.141 0-1.876.905-1.876 2.333 0 1.432.726 2.336 1.876 2.336Zm22.46-.074h.893v-2.64c0-.685.406-1.145 1.137-1.145.63 0 .967.365.967 1.087V14.7h.892v-2.918c0-1.075-.593-1.685-1.556-1.685-.68 0-1.158.303-1.378.81h-.07V8.415h-.885V14.7ZM35.651 8.71v5.99h2.162c1.785 0 2.819-1.1 2.819-3.013 0-1.885-1.042-2.976-2.819-2.976h-2.162Zm56.953.345v1.146h-.718v.75h.718v2.553c0 .872.394 1.22 1.386 1.22.174 0 .34-.02.485-.045v-.743c-.124.012-.203.02-.34.02-.444 0-.64-.207-.64-.68v-2.324h.98V10.2h-.98V9.055h-.891Zm-56.023.502h1.129c1.24 0 1.975.789 1.975 2.142 0 1.374-.722 2.154-1.975 2.154h-1.13V9.557Zm7.216 5.23c1.32 0 2.129-.884 2.129-2.35 0-1.456-.814-2.344-2.13-2.344-1.32 0-2.133.888-2.133 2.345 0 1.465.81 2.349 2.134 2.349Zm10.049-.087h.892v-2.644c0-.706.42-1.146 1.079-1.146.66 0 .975.361.975 1.088V14.7h.893v-2.926c0-1.075-.556-1.681-1.565-1.681-.68 0-1.129.303-1.349.805h-.066v-.718h-.86v4.52Zm9.492.087c1.32 0 2.13-.884 2.13-2.35 0-1.456-.814-2.344-2.13-2.344-1.32 0-2.133.888-2.133 2.345 0 1.465.81 2.349 2.133 2.349Zm4.56-.013c.594 0 1.087-.257 1.357-.71h.07v.636h.86v-3.088c0-.955-.64-1.52-1.772-1.52-1.025 0-1.756.499-1.847 1.275h.863c.1-.32.444-.502.942-.502.61 0 .926.27.926.747v.39l-1.225.07c-1.075.067-1.68.536-1.68 1.35 0 .825.634 1.352 1.506 1.352Zm13.446.013c1.32 0 2.13-.884 2.13-2.35 0-1.456-.814-2.344-2.13-2.344-1.32 0-2.133.888-2.133 2.345 0 1.465.81 2.349 2.133 2.349Zm3.31-.087h.893v-2.644c0-.706.42-1.146 1.08-1.146.66 0 .975.361.975 1.088V14.7h.892v-2.926c0-1.075-.556-1.681-1.565-1.681-.68 0-1.129.303-1.349.805h-.066v-.718h-.86v4.52Zm19.235-1.22c-.166.352-.535.547-1.075.547-.713 0-1.174-.502-1.203-1.295v-.05h3.191v-.31c0-1.42-.759-2.28-2.017-2.28-1.274 0-2.083.918-2.083 2.362 0 1.445.793 2.333 2.087 2.333 1.034 0 1.756-.498 1.959-1.308h-.859Zm-51.071-3.3h-.892l-.806 3.449h-.07l-.93-3.45h-.855l-.93 3.45h-.066l-.81-3.45h-.904L47.8 14.7h.917l.93-3.328h.07l.934 3.329h.926l1.241-4.52Zm49.963.672c.66 0 1.092.461 1.112 1.17h-2.282c.05-.705.51-1.17 1.17-1.17Zm-58.984 3.142c-.776 0-1.212-.569-1.212-1.556 0-.98.436-1.553 1.212-1.553.772 0 1.212.573 1.212 1.553 0 .983-.44 1.556-1.212 1.556Zm19.541 0c-.776 0-1.212-.569-1.212-1.556 0-.98.436-1.553 1.212-1.553.772 0 1.212.573 1.212 1.553 0 .983-.44 1.556-1.212 1.556Zm18.006 0c-.776 0-1.212-.569-1.212-1.556 0-.98.436-1.553 1.212-1.553.772 0 1.212.573 1.212 1.553 0 .983-.44 1.556-1.212 1.556Zm-7.878-3.088c.747 0 1.216.594 1.216 1.536 0 .946-.465 1.531-1.216 1.531-.755 0-1.208-.577-1.208-1.535 0-.95.457-1.532 1.208-1.532Zm-5.34 3.117c-.485 0-.838-.236-.838-.643 0-.399.282-.61.905-.652l1.104-.07v.377c0 .56-.498.988-1.17.988ZM23.152 8.72a4.873 4.873 0 0 1-1.115 3.491 4.147 4.147 0 0 1-3.236 1.53 4.678 4.678 0 0 1 1.143-3.36 4.957 4.957 0 0 1 3.208-1.66Zm3.973 7.429a4.989 4.989 0 0 0-2.356 4.152 4.824 4.824 0 0 0 2.92 4.4 10.957 10.957 0 0 1-1.52 3.092c-.894 1.338-1.831 2.645-3.32 2.669-.708.016-1.185-.187-1.683-.4-.52-.22-1.06-.451-1.908-.451-1.674 0-2.192.827-3.58.884-1.417.053-2.5-1.428-3.427-2.753-1.852-2.707-3.295-7.628-1.36-10.976a5.359 5.359 0 0 1 4.472-2.728c.804-.017 1.575.293 2.252.565.517.208.979.393 1.357.393.332 0 .78-.178 1.303-.386.824-.326 1.832-.726 2.86-.619a5.128 5.128 0 0 1 3.99 2.158Z" fill-rule="evenodd"/><rect rx="3.5" width="119" height="39" transform="translate(.5 .5)"/></svg><svg viewBox="0 0 10.852 6" id="arrow-down" xmlns="http://www.w3.org/2000/svg"><path d="M5.039 5.84.16.94a.554.554 0 0 1 0-.779.545.545 0 0 1 .774 0l4.492 4.512L9.917.162a.546.546 0 0 1 .775 0 .554.554 0 0 1 0 .779l-4.879 4.9a.551.551 0 0 1-.774 0Z"/></svg><svg viewBox="0 0 5.842 10" id="breadcrumbs-arrow" xmlns="http://www.w3.org/2000/svg"><path d="M5.722 4.683.718.123a.422.422 0 0 0-.595 0 .417.417 0 0 0 0 .591L4.826 5 .124 9.286a.417.417 0 0 0 0 .591c.164.164.43.164.594 0l5.004-4.56A.412.412 0 0 0 5.842 5a.416.416 0 0 0-.12-.317Z"/></svg><svg viewBox="0 0 12 8.393" id="check-on" xmlns="http://www.w3.org/2000/svg"><path d="M4.196 8.393a.587.587 0 0 1-.416-.173L.173 4.613a.588.588 0 1 1 .832-.833l3.191 3.19L10.995.174a.588.588 0 1 1 .832.832L4.613 8.22a.588.588 0 0 1-.417.173Z"/></svg><svg viewBox="0 0 14 12.012" id="icon-arrow" xmlns="http://www.w3.org/2000/svg"><path d="M8.121.293a1 1 0 0 0 0 1.414L11.413 5 1 5.007a1 1 0 1 0 0 2L11.414 7l-3.293 3.293a1 1 0 1 0 1.414 1.414l3.586-3.585a2.997 2.997 0 0 0 0-4.243L9.535.293a1 1 0 0 0-1.414 0Z"/></svg><svg viewBox="0 0 10.832 18.5" id="icon-arrow2" xmlns="http://www.w3.org/2000/svg"><path d="M8.197 18.05.45 10.302a1.548 1.548 0 0 1 0-2.184L8.197.373a1.548 1.548 0 0 1 2.184 2.184L3.735 9.203l6.646 6.662c.601.604.601 1.58 0 2.184a1.548 1.548 0 0 1-2.184 0Z"/></svg><svg viewBox="0 0 44 44" id="icon-asia" xmlns="http://www.w3.org/2000/svg"><path fill="none" d="M0 0h44v44H0z"/><path d="M15.132 13.567h2.124c.552 0 1 .448 1 1v1.465a.644.644 0 1 0 1.29 0v-1.465a2.292 2.292 0 0 0-2.29-2.29h-2.124a.984.984 0 0 1 0-1.965h4.711a2.275 2.275 0 0 0 2.272-2.273 2.275 2.275 0 0 0-2.272-2.272h-3.77a.645.645 0 1 0 0 1.29h3.77a.984.984 0 0 1 0 1.966h-4.711a2.275 2.275 0 0 0-2.273 2.272 2.275 2.275 0 0 0 2.273 2.272ZM7.389 17.893h2.108c.544 0 .987.442.987.987v1.454a.644.644 0 1 0 1.29 0V18.88a2.279 2.279 0 0 0-2.277-2.276H7.39a.972.972 0 0 1 0-1.942h2.465a.645.645 0 0 0 0-1.289H7.389a2.262 2.262 0 0 0-2.26 2.26 2.262 2.262 0 0 0 2.26 2.26Z"/><path d="M26.297 26.168a.645.645 0 1 1-1.29 0 .645.645 0 0 1 1.29 0ZM29.477 27.629a.645.645 0 1 1-1.29 0 .645.645 0 0 1 1.29 0ZM31.367 29.863a.645.645 0 1 1-1.289 0 .645.645 0 0 1 1.29 0ZM28.703 24.621a.644.644 0 1 1-1.289 0 .644.644 0 0 1 1.29 0ZM26.555 30.293a.645.645 0 1 1-1.29 0 .645.645 0 0 1 1.29 0Z" fill-rule="evenodd"/><path d="M42.911 22.811h-1.828l.904-1.868A2.507 2.507 0 0 0 44 18.49a2.507 2.507 0 0 0-2.102-2.47c-1.315-2.37-3.885-4.149-7.001-4.859v-.05a.644.644 0 0 0-1.264-.175 13.78 13.78 0 0 0-1.197-.1.644.644 0 0 0-1.163 0c-.405.017-.804.05-1.197.1a.644.644 0 0 0-1.264.176v.049c-3.116.71-5.686 2.49-7.001 4.859a2.506 2.506 0 0 0-2.093 2.686c-2.975.276-5.649 1.52-7.655 3.385h-4.05a.908.908 0 0 0-.69.318H5.43a2.118 2.118 0 0 0-1.957-1.337 2.106 2.106 0 0 0-2.082 2.397 2.107 2.107 0 0 0-1.066 3.104 2.106 2.106 0 0 0 1.778 3.229c.878 0 1.648-.554 1.958-1.337h1.704a.91.91 0 0 0 .586.623l2.02.686a10.903 10.903 0 0 0-.002 1.223c-.316.076-.61.207-.873.383a2.7 2.7 0 0 0-1.51-.46 2.721 2.721 0 0 0-2.717 2.719l.002.068h-.754c-.426 0-.803.24-.985.624-.181.385-.126.828.144 1.157l1.934 2.35c.207.251.514.396.84.396h27.26a.644.644 0 1 0 0-1.29H4.545l-1.604-1.948h39.544l-1.603 1.949h-6.164a.645.645 0 1 0 0 1.289h6.258c.327 0 .633-.145.84-.397l1.934-2.35a1.08 1.08 0 0 0 .144-1.156 1.079 1.079 0 0 0-.984-.624h-.638a5.41 5.41 0 0 0 .64-3.671.645.645 0 0 0-.52-.52 5.409 5.409 0 0 0-5.008 1.731c-.37-.2-.79-.316-1.237-.324v-1.227h.688c1.09 0 1.977-.887 1.977-1.977v-.865h4.1c.6 0 1.088-.488 1.088-1.088V23.9c0-.6-.488-1.089-1.089-1.089ZM6.291 33.706H4.56l-.002-.068a1.43 1.43 0 0 1 2.053-1.284c-.206.383-.323.82-.323 1.284 0 .023.002.046.003.068Zm32.225-1.784a4.116 4.116 0 0 1 3.184-1.195 4.118 4.118 0 0 1-1.005 2.98h-1.063l.881-.881a.644.644 0 1 0-.911-.912l-.914.914a2.71 2.71 0 0 0-.348-.718c.057-.064.115-.127.176-.188Zm-13.013-17.98a10.717 10.717 0 0 1 3.309-1.452v.663a.645.645 0 1 0 1.29 0v-.918c.364-.052.735-.087 1.108-.106v1.024a.645.645 0 1 0 1.289 0V12.13c.373.02.743.054 1.109.106v.918a.644.644 0 1 0 1.289 0v-.663c1.206.309 2.333.799 3.309 1.452.95.637 1.724 1.406 2.288 2.256a2.526 2.526 0 0 0-.604.375 2.506 2.506 0 0 0-1.607-.587c-.595 0-1.163.215-1.607.587a2.506 2.506 0 0 0-1.607-.587c-.595 0-1.163.215-1.607.587a2.506 2.506 0 0 0-1.608-.587c-.594 0-1.162.215-1.607.587a2.506 2.506 0 0 0-1.607-.587c-.594 0-1.162.215-1.607.587a2.506 2.506 0 0 0-1.607-.587c-.594 0-1.162.215-1.607.587a2.522 2.522 0 0 0-.605-.375c.565-.85 1.339-1.619 2.29-2.256Zm-3.291 3.333c.43 0 .832.233 1.05.607a.645.645 0 0 0 1.114 0c.217-.374.62-.607 1.05-.607.43 0 .832.233 1.05.607a.644.644 0 0 0 1.115 0c.217-.374.619-.607 1.05-.607.43 0 .832.233 1.049.607a.644.644 0 0 0 1.115 0c.217-.374.62-.607 1.05-.607.43 0 .832.233 1.049.607a.644.644 0 0 0 1.115 0c.217-.374.62-.607 1.05-.607.43 0 .832.233 1.05.607a.644.644 0 0 0 1.114 0c.217-.374.62-.607 1.05-.607.43 0 .832.233 1.05.607a.644.644 0 0 0 1.114 0c.218-.374.62-.607 1.05-.607a1.215 1.215 0 0 1 0 2.427c-.43 0-.832-.232-1.05-.606a.644.644 0 0 0-1.114 0c-.218.374-.62.607-1.05.607-.43 0-.833-.233-1.05-.607a.644.644 0 0 0-1.115 0c-.217.374-.62.607-1.05.607-.43 0-.832-.233-1.049-.607a.644.644 0 0 0-1.115 0c-.217.374-.62.607-1.05.607-.43 0-.832-.233-1.05-.607a.644.644 0 0 0-1.114 0c-.218.374-.62.607-1.05.607-.43 0-.832-.233-1.05-.607a.644.644 0 0 0-1.114 0 1.22 1.22 0 0 1-.54.492 13.368 13.368 0 0 0-4.927-.942 1.215 1.215 0 0 1 1.202-1.37ZM8.392 23.38h2.472c-.255.316-.493.644-.712.983h-1.76v-.983Zm-2.66 3.796H3.558a.645.645 0 0 0-.643.59.818.818 0 0 1-.81.747.815.815 0 0 1-.519-1.443.645.645 0 0 0 0-.993.813.813 0 1 1 1.33-.697.645.645 0 0 0 .642.59h2.176v1.206Zm.221-2.494H4.061a2.128 2.128 0 0 0-1.36-1.248.815.815 0 0 1 .772-1.073c.42 0 .776.328.811.746a.644.644 0 0 0 .642.591h2.177v.666h-.46a.91.91 0 0 0-.69.318Zm4.48 9.025H7.58a1.43 1.43 0 0 1 1.427-1.497 1.43 1.43 0 0 1 1.428 1.429l-.002.068Zm19.879 0h-2.244l-.002-.068a1.43 1.43 0 0 1 2.439-1.01 2.703 2.703 0 0 0-.196 1.01c0 .023.002.046.003.068Zm-.817-2.786a2.721 2.721 0 0 0-2.719 2.718c0 .023.002.046.003.068H11.722l.002-.068c0-1.273-.88-2.344-2.063-2.638a9.726 9.726 0 0 1-.016-.794l6.592 2.238a4.113 4.113 0 0 0 3.753-.556 4.106 4.106 0 0 0 1.732-3.375c0-.484-.083-.96-.247-1.412a.645.645 0 0 0-1.212.438c.113.312.17.64.17.974a2.83 2.83 0 0 1-1.195 2.327 2.83 2.83 0 0 1-2.587.383l-9.63-3.27v-2.301h10.55c.324 0 .642.054.947.16a.644.644 0 1 0 .427-1.216 4.144 4.144 0 0 0-1.373-.234h-5.845c2.056-2.676 5.438-4.427 9.256-4.427 6.253 0 11.34 4.695 11.34 10.467 0 .206-.006.412-.02.616-.389.108-.743.3-1.042.557a2.705 2.705 0 0 0-1.766-.655Zm4.959 2.786h-2.853a1.43 1.43 0 0 1 1.427-1.497 1.43 1.43 0 0 1 1.428 1.429c0 .023 0 .046-.002.068Zm.404-2.486c-.102.053-.202.11-.297.175a2.704 2.704 0 0 0-.964-.413c.01-.193.016-.386.016-.58 0-.237-.01-.473-.025-.707h1.27v1.525Zm2.665 2.418c0 .023-.002.046-.003.068h-1.777l.002-.068a2.7 2.7 0 0 0-.313-1.266 1.43 1.43 0 0 1 2.09 1.266Zm0-5.92c0 .38-.309.688-.688.688h-3.407a11 11 0 0 0-.404-1.553h4.499v.865Zm5.188-2.154H32.493a11.512 11.512 0 0 0-.853-1.464h2.735a.645.645 0 0 0 0-1.289h-3.756a12.404 12.404 0 0 0-2.077-1.822 2.507 2.507 0 0 0 1.705-.585 2.506 2.506 0 0 0 1.607.588c.595 0 1.163-.215 1.608-.588a2.506 2.506 0 0 0 1.607.588c.594 0 1.162-.215 1.607-.588a2.506 2.506 0 0 0 1.607.588c.594 0 1.162-.215 1.607-.588.215.18.459.323.72.423l-.96 1.984h-2.267a.645.645 0 0 0 0 1.29h5.328v1.463Z"/></svg><svg viewBox="0 0 44 42.638" id="icon-burger" xmlns="http://www.w3.org/2000/svg"><path d="M44 21.32c0-1.863-1.09-3.45-2.602-4.029-.232-5.778-2.189-10.213-5.825-13.192C32.254 1.379 27.688 0 22 0 16.312 0 11.746 1.379 8.427 4.099c-3.636 2.98-5.593 7.414-5.825 13.192C1.089 17.871 0 19.457 0 21.319a4.5 4.5 0 0 0 .988 2.843A4.5 4.5 0 0 0 0 27.004c0 1.874 1.103 3.468 2.63 4.039.553 6.494 5.56 11.595 11.636 11.595h15.468c6.076 0 11.084-5.1 11.636-11.595 1.527-.57 2.63-2.165 2.63-4.039a4.5 4.5 0 0 0-.988-2.842A4.5 4.5 0 0 0 44 21.319ZM22 2.842c7.393 0 16.151 2.512 16.803 14.212H5.197C5.849 5.355 14.607 2.843 22 2.843ZM3.867 19.898h36.266c.71 0 1.289.637 1.289 1.421s-.578 1.421-1.29 1.421H3.868c-.71 0-1.289-.637-1.289-1.42 0-.785.578-1.422 1.29-1.422Zm25.867 19.898H14.266c-4.581 0-8.383-3.713-9.016-8.528h1.195c.862 0 1.134.323 1.677.967.667.792 1.58 1.876 3.566 1.876 2 0 2.889-1.095 3.538-1.895.513-.631.77-.948 1.618-.948.848 0 1.105.317 1.617.948.65.8 1.54 1.895 3.539 1.895 2 0 2.89-1.095 3.538-1.895.513-.631.77-.948 1.618-.948.848 0 1.105.317 1.618.948.65.8 1.539 1.895 3.538 1.895 2 0 2.89-1.095 3.539-1.895.513-.631.77-.948 1.618-.948h1.281c-.633 4.815-4.435 8.528-9.016 8.528Zm10.399-11.37h-2.664c-2 0-2.89 1.094-3.539 1.894-.512.631-.77.948-1.617.948-.848 0-1.106-.317-1.618-.948-.65-.8-1.539-1.895-3.539-1.895s-2.889 1.095-3.538 1.895c-.513.631-.77.948-1.618.948-.848 0-1.105-.317-1.618-.948-.65-.8-1.538-1.895-3.538-1.895-2 0-2.89 1.095-3.539 1.895-.512.631-.77.948-1.617.948-.862 0-1.135-.323-1.677-.967-.667-.792-1.58-1.875-3.566-1.875H3.867c-.71 0-1.289-.638-1.289-1.422 0-.784.578-1.421 1.29-1.421h36.265c.71 0 1.289.638 1.289 1.421 0 .784-.578 1.421-1.29 1.421Z"/><path d="M15.555 12.791c0 .785-.578 1.422-1.29 1.422-.711 0-1.288-.636-1.288-1.421s.577-1.422 1.289-1.422c.711 0 1.289.637 1.289 1.421ZM31.023 12.791c0 .785-.577 1.422-1.289 1.422s-1.289-.636-1.289-1.421.578-1.422 1.29-1.422c.711 0 1.288.637 1.288 1.421ZM25.867 9.949c0 .785-.577 1.421-1.289 1.421s-1.289-.636-1.289-1.421.577-1.421 1.29-1.421c.711 0 1.288.636 1.288 1.42ZM20.71 7.106c0 .785-.576 1.422-1.288 1.422-.712 0-1.29-.637-1.29-1.422 0-.785.578-1.42 1.29-1.42.712 0 1.289.635 1.289 1.42Z" fill-rule="evenodd"/></svg><svg viewBox="0 0 20.001 19.333" id="icon-buy" xmlns="http://www.w3.org/2000/svg"><path d="m.75.75 2.08.356.964 11.34c.077.926.86 1.637 1.8 1.634h10.909a1.794 1.794 0 0 0 1.785-1.528l.949-6.482a1.329 1.329 0 0 0-1.135-1.501c-.064-.01-14.937-.014-14.937-.014M12.126 8.208h2.773"/><path d="M5.155 17.506c.3 0 .544.242.544.538a.541.541 0 0 1-.544.54.541.541 0 0 1-.544-.54c0-.296.243-.538.544-.538Z" fill-rule="evenodd"/><path d="M5.699 18.044a.541.541 0 0 1-.544.54.541.541 0 0 1-.544-.54c0-.296.243-.538.544-.538.3 0 .544.242.544.538Z"/><path d="M16.435 17.506c.301 0 .545.242.545.538a.542.542 0 0 1-.545.54.541.541 0 0 1-.544-.54c0-.296.243-.538.544-.538Z" fill-rule="evenodd"/><path d="M16.98 18.044a.542.542 0 0 1-.545.54.541.541 0 0 1-.544-.54c0-.296.243-.538.544-.538.301 0 .545.242.545.538Z"/></svg><svg viewBox="0 0 34 33.605" id="icon-delivery" xmlns="http://www.w3.org/2000/svg"><defs><clipPath id="aka"><path fill-opacity="0" d="M0 0h34v33.605H0z"/></clipPath></defs><path fill="none" d="M0 0h34v33.605H0z"/><g clip-path="url(#aka)"><path d="m6.518 24.47.407.97c.288-.119.587-.206.893-.26l-.19-1.035c-.38.069-.753.177-1.11.324ZM3.727 27.075l.956.458a4.323 4.323 0 0 1 1.46-1.676l-.6-.867a5.378 5.378 0 0 0-1.816 2.085Z"/><path d="M32.938 26.78c0-.905-.337-1.777-.948-2.45l-.791.7c.314.346.529.769.623 1.225h-3.666a.536.536 0 0 0-.442.234l-1.967 2.916h-1.31V27.83a3.658 3.658 0 0 1 1.091-2.598 3.745 3.745 0 0 1 2.628-1.078h1.063c.522 0 1.033.152 1.468.438l.588-.875a3.723 3.723 0 0 0-1.525-.575v-1.613a.522.522 0 0 0-.156-.371.535.535 0 0 0-.375-.154 2.14 2.14 0 0 1-1.502-.616 2.09 2.09 0 0 1-.623-1.484v-2.1h1.593c.141 0 .276-.056.376-.154a.522.522 0 0 0 .156-.372v-3.675a.522.522 0 0 0-.156-.372.534.534 0 0 0-.375-.153h-.938c-.221 0-.442.03-.656.089v-.615a.522.522 0 0 0-.117-.328L25.24 9.077a1.82 1.82 0 0 0-.43-2.366 1.873 1.873 0 0 0-2.43.078 1.822 1.822 0 0 0-.274 2.388 1.86 1.86 0 0 0 1.06.74c.432.112.89.067 1.291-.126l1.575 1.946v.662l-2.335-.77a1.45 1.45 0 0 0-.476-.077h-4.382l-2.522-2.908A1.58 1.58 0 0 0 17 7.352v-.2l.769-.38a.53.53 0 0 0 .276-.336.518.518 0 0 0-.072-.426l-.872-1.293a.532.532 0 0 0 .309-.182.52.52 0 0 0 .121-.334c0-.835-.337-1.636-.934-2.226a3.21 3.21 0 0 0-2.253-.924c-1 0-1.927.284-2.616 1.036a3.122 3.122 0 0 0-.808 2.427l.113 1.124c.048.484.282.932.655 1.25v9.915c0 .37.098.732.285 1.05h-.817c-.18 0-.36.03-.531.09v-6.916c0-.417-.168-.818-.467-1.113a1.605 1.605 0 0 0-1.127-.462H2.656c-.422 0-.827.167-1.126.462a1.568 1.568 0 0 0-.468 1.113v2.626h1.063v-1.05h7.438v5.25H2.125v-3.15H1.062v4.287c0 .246.088.485.247.674.16.188.381.316.626.36l4.971.893v1.232c-.45.103-.89.247-1.314.43H2.656a.534.534 0 0 0-.375.154.522.522 0 0 0-.156.371v2.493a7.392 7.392 0 0 0-1.063 3.808c0 .14.056.273.156.372.1.098.235.153.376.153h2.435a4.21 4.21 0 0 0 1.564 1.908 4.285 4.285 0 0 0 4.752 0 4.21 4.21 0 0 0 1.564-1.908h8.932a2.687 2.687 0 0 0 1.965-.859l.569-.618v1.477c0 .14.056.273.156.372.1.098.234.153.375.153h1.101c.468.801 1.19 1.427 2.054 1.78a4.296 4.296 0 0 0 2.727.177 4.252 4.252 0 0 0 2.271-1.5 4.17 4.17 0 0 0 .705-3.745.523.523 0 0 0 .173-.387ZM22.843 8.14a.78.78 0 0 1 .492-.728.806.806 0 0 1 .868.17.785.785 0 0 1 .173.859.803.803 0 0 1-1.3.255.784.784 0 0 1-.233-.557Zm-7.6 18.64c-.52 0-1.02-.205-1.387-.569a1.93 1.93 0 0 1-.576-1.37c0-.516.132-.998.48-1.395.31-.353.737-.583 1.205-.65a2.376 2.376 0 0 0 1.454-.783c.374-.426.58-.97.58-1.534a.518.518 0 0 0-.156-.372 1.557 1.557 0 0 0 .065-1.203h1.443l-2.332 5.99a1.208 1.208 0 0 0-.082.453v1.433h-.694ZM17 25.73h2.656a.535.535 0 0 1 .508.373.52.52 0 0 1-.213.588 1.074 1.074 0 0 1-.424.089H17v-1.05Zm4.123-.092a1.582 1.582 0 0 0-.484-.623 1.606 1.606 0 0 0-.727-.315l2.2-5.235a3.03 3.03 0 0 0-.284-2.875 3.087 3.087 0 0 0-1.116-1 3.128 3.128 0 0 0-1.46-.362H17v-.833l.156.154a.531.531 0 0 0 .375.154h5.404a1.559 1.559 0 0 0 .201 1.435 1.589 1.589 0 0 0 1.302.665h.001a2.591 2.591 0 0 0-.533 1.575v4.074c0 .278-.112.545-.311.742l-2.472 2.444Zm3.314-9.885a.535.535 0 0 1-.49-.324.52.52 0 0 1 .387-.716.537.537 0 0 1 .545.223.52.52 0 0 1-.066.663.535.535 0 0 1-.375.154Zm3.72-2.625v2.625h-1.063v-2.462a1.41 1.41 0 0 1 .656-.163h.406Zm-2.126 2.1a1.56 1.56 0 0 0-.673-1.286 1.603 1.603 0 0 0-1.452-.199v-.937l2.125.7v1.722Zm-7.437-2.625h4.25v1.05H17.75l-3.032-2.997-.75.743 1.969 1.946v1.883H12.75V8.927h2.412l3.028 3.492a.532.532 0 0 0 .404.184Zm-6.078-9.811c.485-.53 1.13-.691 1.828-.691.47 0 .928.155 1.3.44.373.286.64.685.758 1.135h-2.058a.534.534 0 0 0-.376.154.522.522 0 0 0-.155.371v1.247a.848.848 0 0 1-.24.586.868.868 0 0 1-1.482-.5l-.114-1.123a2.054 2.054 0 0 1 .539-1.62Zm.433 4.56c.51 0 1-.201 1.361-.558.361-.357.564-.841.565-1.346v-.722h1.063a.52.52 0 0 0 .089.292l.728 1.08-.524.26a.529.529 0 0 0-.294.469v.525c0 .139-.056.272-.155.37a.535.535 0 0 1-.376.155H12.75V7.34c.066.007.133.01.2.01Zm-.199 9.451v-.525h6.501c.335 0 .665.082.96.238.296.156.547.382.733.657a1.997 1.997 0 0 1 .187 1.889l-2.36 5.617h-1.529l2.379-6.112a.519.519 0 0 0-.249-.653.535.535 0 0 0-.247-.06h-5.313a1.07 1.07 0 0 1-.75-.308 1.045 1.045 0 0 1-.312-.743Zm-1.594 2.1h4.25c.141 0 .276.056.376.154a.522.522 0 0 1-.376.897h-4.25a.535.535 0 0 1-.375-.154.522.522 0 0 1 .375-.896Zm-9.031-7.35v-.526c0-.139.056-.272.156-.37a.535.535 0 0 1 .375-.155h6.375c.141 0 .276.056.376.154.1.099.155.232.155.371v.525H2.125Zm0 7.35h7.438v1.05H7.485l-5.36-.963v-.086Zm1.72 4.726c-.231.185-.45.384-.658.595v-.595h.657Zm4.124 7.877a3.24 3.24 0 0 1-1.592-.426 3.192 3.192 0 0 1-1.168-1.15h1.356a2.136 2.136 0 0 0 2.808 0h1.356a3.192 3.192 0 0 1-1.169 1.15 3.24 3.24 0 0 1-1.591.426Zm14.051-3.141a1.594 1.594 0 0 1-1.18.515H2.148a6.358 6.358 0 0 1 1.592-3.701 6.486 6.486 0 0 1 3.513-2.03 2.01 2.01 0 0 1 .418-.045h3.486v-1.05H7.97v-1.05h7.856a1.315 1.315 0 0 1-1.01.753c-.72.102-1.38.458-1.857 1-.514.586-.74 1.318-.74 2.083 0 .712.258 1.4.726 1.94H8.5v1.05h11.027a2.176 2.176 0 0 0 1.503-.615l3.316-3.278c.398-.395.621-.928.623-1.485v-4.074c0-.325.102-.643.293-.909.19-.266.459-.467.77-.576v2.01c0 .745.267 1.465.753 2.033.486.569 1.16.95 1.902 1.074v1.094c-.33 0-.667-.02-.995.023-.994.097-1.932.5-2.683 1.15a4.726 4.726 0 0 0-1.507 2.477l-1.482 1.61Zm6.42-1.06h.027l.642.634a.588.588 0 0 1 .074.743.594.594 0 0 1-.612.25.598.598 0 0 1-.305-.16l-.489-.484.664-.983Zm.247 4.2a3.202 3.202 0 0 1-2.422-1.105.528.528 0 0 0 .208-.178l.46-.683c.257.37.626.65 1.055.799.428.148.893.157 1.327.024a2.124 2.124 0 0 0 1.083-.76 2.083 2.083 0 0 0 .129-2.297h1.166a3.119 3.119 0 0 1-.403 2.869 3.18 3.18 0 0 1-1.137.979 3.22 3.22 0 0 1-1.465.353Z"/><path d="M3.188 13.652H4.25v3.15H3.187v-3.15Z" fill-rule="evenodd"/></g></svg><svg viewBox="0 0 44 43.489" id="icon-dish" xmlns="http://www.w3.org/2000/svg"><defs><clipPath id="ala"><path fill-opacity="0" d="M0 0h44v43.489H0z"/></clipPath></defs><path fill="none" d="M0 0h44v43.489H0z"/><g clip-path="url(#ala)"><path d="m31.158 14.657-.47-1.531c-.599-1.74-2.51-2.671-4.27-2.08a3.347 3.347 0 0 0-2.105 2.08l-.47 1.531a8.508 8.508 0 0 0-.244 3.987 3.754 3.754 0 0 0 1.954 2.613l-.527 11.65c-.07.65.143 1.3.587 1.785a2.583 2.583 0 0 0 3.78 0 2.248 2.248 0 0 0 .587-1.736l-.53-11.7a3.753 3.753 0 0 0 1.95-2.612 8.507 8.507 0 0 0-.242-3.987Zm-1.202 3.735a2.307 2.307 0 0 1-1.522 1.731.725.725 0 0 0-.474.711l.557 12.236a.833.833 0 0 1-.22.657 1.143 1.143 0 0 1-1.594 0 .864.864 0 0 1-.216-.705l.553-12.188a.725.725 0 0 0-.474-.71 2.307 2.307 0 0 1-1.522-1.732 7.069 7.069 0 0 1 .202-3.31l.47-1.532a1.908 1.908 0 0 1 3.568 0l.47 1.532a7.077 7.077 0 0 1 .202 3.31ZM19.8 10.872a.73.73 0 0 0-.733.725v6.223l-1.986 1.963a.72.72 0 0 0-.214.548l.641 12.685a.981.981 0 0 1-.277.738c-.401.4-1.055.404-1.46.007l-.007-.007a.98.98 0 0 1-.277-.738l.646-12.685a.72.72 0 0 0-.214-.548l-1.986-1.963v-6.223a.73.73 0 0 0-.733-.725.73.73 0 0 0-.733.725v6.524c0 .192.077.376.214.512l1.97 1.948-.625 12.364c-.067 1.351.987 2.5 2.354 2.565 1.366.066 2.528-.976 2.594-2.326.004-.08.004-.16 0-.239l-.625-12.364 1.97-1.948a.72.72 0 0 0 .214-.512v-6.524a.73.73 0 0 0-.733-.725Z"/><path d="M15.4 10.872a.73.73 0 0 0-.733.725v5.799c0 .4.328.724.733.724a.73.73 0 0 0 .733-.724v-5.799a.73.73 0 0 0-.733-.725ZM17.6 10.872a.73.73 0 0 0-.733.725v5.799c0 .4.328.724.733.724a.73.73 0 0 0 .733-.724v-5.799a.73.73 0 0 0-.733-.725Z"/><path d="M22 0C9.85 0 0 9.735 0 21.745c0 12.009 9.85 21.744 22 21.744s22-9.735 22-21.744C43.986 9.74 34.145.014 22 0Zm0 42.04c-11.34 0-20.533-9.087-20.533-20.295C1.467 10.536 10.66 1.45 22 1.45c11.34 0 20.533 9.086 20.533 20.295C42.52 32.948 33.335 42.027 22 42.04Z"/><path d="M24.38 35.351a.731.731 0 0 0-.829-.648h.003a13.618 13.618 0 0 1-3.108 0 .732.732 0 0 0-.814.635.727.727 0 0 0 .643.805c1.145.133 2.302.133 3.447 0a.727.727 0 0 0 .658-.792ZM33.22 12.405a.74.74 0 0 0-1.033-.09l-.003.003a.72.72 0 0 0-.088 1.02 12.936 12.936 0 0 1-.778 17.648.72.72 0 0 0-.002 1.025.74.74 0 0 0 1.037.002 14.374 14.374 0 0 0 .867-19.608ZM17.086 9.582l-.001-.001h-.003.004Z"/><path d="M25.46 7.653a14.962 14.962 0 0 0-8.633.524.722.722 0 0 0 .258 1.404.744.744 0 0 0 .256-.047 13.47 13.47 0 0 1 7.773-.472.734.734 0 0 0 .886-.534.724.724 0 0 0-.54-.875ZM12.65 30.95a12.887 12.887 0 0 1-3.85-9.205 12.85 12.85 0 0 1 2.523-7.675.72.72 0 0 0-.145-1.015.74.74 0 0 0-1.027.144l-.013.018a14.371 14.371 0 0 0 1.472 18.76.74.74 0 0 0 1.039 0 .72.72 0 0 0 0-1.027Z"/></g></svg><svg viewBox="0 0 24 24" id="icon-email" xmlns="http://www.w3.org/2000/svg"><path fill="none" d="M0 0h24v24H0z"/><path d="m17.903 8.851-4.444 3.613c-.84.666-2.02.666-2.86 0L6.12 8.851"/><path d="M22 15.438V8.57C22 5.5 19.95 3 16.909 3H7.09C4.05 3 2 5.499 2 8.57v6.868C2 18.51 4.05 21.008 7.091 21h9.818C19.95 21.008 22 18.51 22 15.438Z"/></svg><svg viewBox="0 0 9.977 20.526" id="icon-facebook" xmlns="http://www.w3.org/2000/svg"><path d="M2.547 20.526v-9.631H0V7.427h2.547V4.465C2.547 2.137 4.05 0 7.517 0 8.922 0 9.96.135 9.96.135l-.082 3.238s-1.058-.01-2.213-.01c-1.25 0-1.45.576-1.45 1.532v2.532h3.763l-.164 3.468h-3.6v9.631H2.547Z"/></svg><svg viewBox="0 0 31.886 36" id="icon-filter" xmlns="http://www.w3.org/2000/svg"><defs><clipPath id="aoa"><path fill-opacity="0" d="M0 0h31.886v36H0z"/></clipPath></defs><path fill="none" d="M0 0h31.886v36H0z"/><g clip-path="url(#aoa)"><path d="M13.78 28.125H1.14C.51 28.125 0 28.629 0 29.25s.51 1.125 1.139 1.125H13.78c.528 2.567 2.825 4.5 5.58 4.5 2.754 0 5.05-1.933 5.578-4.5h5.809c.628 0 1.139-.504 1.139-1.125s-.51-1.125-1.14-1.125h-5.808c-.527-2.567-2.824-4.5-5.579-4.5-2.754 0-5.051 1.933-5.579 4.5Zm8.996 1.125c0 1.864-1.53 3.375-3.417 3.375-1.887 0-3.416-1.51-3.416-3.375 0-1.864 1.53-3.375 3.416-3.375 1.887 0 3.416 1.511 3.416 3.375ZM2.393 16.875H1.139C.51 16.875 0 17.379 0 18s.51 1.125 1.139 1.125h1.254c.527 2.567 2.824 4.5 5.578 4.5 2.755 0 5.052-1.933 5.58-4.5h17.196c.628 0 1.139-.504 1.139-1.125s-.51-1.125-1.14-1.125H13.55c-.527-2.567-2.824-4.5-5.579-4.5-2.754 0-5.051 1.933-5.578 4.5ZM11.388 18c0 1.864-1.53 3.375-3.417 3.375-1.887 0-3.416-1.51-3.416-3.375 0-1.864 1.53-3.375 3.416-3.375 1.887 0 3.417 1.51 3.417 3.375Zm6.947-12.375H1.14C.51 5.625 0 6.129 0 6.75s.51 1.125 1.139 1.125h17.197c.527 2.567 2.824 4.5 5.578 4.5 2.755 0 5.052-1.933 5.58-4.5h1.253c.628 0 1.139-.504 1.139-1.125s-.51-1.125-1.14-1.125h-1.253c-.527-2.567-2.824-4.5-5.579-4.5-2.754 0-5.051 1.933-5.579 4.5Zm8.996 1.125c0 1.864-1.53 3.375-3.417 3.375-1.887 0-3.416-1.51-3.416-3.375 0-1.864 1.53-3.375 3.416-3.375 1.887 0 3.417 1.51 3.417 3.375Z"/></g></svg><svg viewBox="0 0 19.5 19.5" id="icon-instagram" xmlns="http://www.w3.org/2000/svg"><path d="M9.748 6.499A3.258 3.258 0 0 0 6.496 9.75a3.258 3.258 0 0 0 3.252 3.252 3.258 3.258 0 0 0 3.251-3.252 3.258 3.258 0 0 0-3.251-3.251Zm9.751 3.251c0-1.346.013-2.68-.063-4.025-.076-1.56-.432-2.946-1.573-4.088C16.719.493 15.336.14 13.775.064 12.428-.01 11.094.001 9.75.001 8.404 0 7.07-.011 5.725.064 4.165.14 2.78.496 1.637 1.637.493 2.781.14 4.164.064 5.725-.01 7.072.001 8.406.001 9.75c0 1.344-.012 2.68.063 4.025.076 1.56.432 2.946 1.573 4.088 1.144 1.144 2.527 1.497 4.088 1.573 1.347.076 2.681.063 4.025.063 1.346 0 2.68.013 4.025-.063 1.56-.076 2.946-.432 4.088-1.573 1.144-1.144 1.497-2.527 1.573-4.088.078-1.344.063-2.679.063-4.025Zm-9.751 5.003A4.996 4.996 0 0 1 4.745 9.75a4.996 4.996 0 0 1 5.003-5.003A4.996 4.996 0 0 1 14.75 9.75a4.995 4.995 0 0 1-5.002 5.003Zm5.207-9.042a1.167 1.167 0 0 1-1.168-1.169c0-.646.522-1.168 1.168-1.168a1.167 1.167 0 0 1 .827 1.995 1.168 1.168 0 0 1-.827.342Z"/></svg><svg viewBox="0 0 24 24" id="icon-location" xmlns="http://www.w3.org/2000/svg"><path fill="none" d="M0 0h24v24H0z"/><path d="M12 8a2.5 2.5 0 1 0 0 5 2.5 2.5 0 0 0 0-5Z"/><path d="M4.5 10.563C4.5 6.387 7.857 3 12 3c4.142 0 7.5 3.387 7.5 7.563C19.5 15.898 13.198 21 12 21c-1.199 0-7.5-5.102-7.5-10.437Z"/></svg><svg viewBox="0 0 44 44" id="icon-pizza" xmlns="http://www.w3.org/2000/svg"><clipPath id="ara"><path transform="matrix(1 0 0 -1 0 44)" fill-opacity="0" d="M0 0h44v44H0z"/></clipPath><path fill="none" d="M0 44h44V0H0z"/><g clip-path="url(#ara)"><path d="M43.745 43.752a.859.859 0 0 1-.892.198L7.159 31.223a4.698 4.698 0 0 1-4.256.338A4.706 4.706 0 0 1 .359 25.42a46.08 46.08 0 0 1 10.038-15.023A46.078 46.078 0 0 1 25.42.358 4.676 4.676 0 0 1 27.213 0c1.846 0 3.6 1.094 4.35 2.902a4.687 4.687 0 0 1-.026 3.65l12.418 36.31a.86.86 0 0 1-.21.89ZM12.563 31.325l3.783 1.349a2.186 2.186 0 0 0-.264-3.235 2.176 2.176 0 0 0-1.62-.434 2.176 2.176 0 0 0-1.451.838c-.329.428-.485.95-.448 1.482ZM29.974 3.56a2.985 2.985 0 0 0-3.896-1.614C15.075 6.504 6.505 15.074 1.947 26.077a2.963 2.963 0 0 0 0 2.282 2.962 2.962 0 0 0 1.614 1.614 2.963 2.963 0 0 0 2.282 0 2.962 2.962 0 0 0 1.614-1.613 38.43 38.43 0 0 1 8.373-12.531 38.433 38.433 0 0 1 12.53-8.373 2.985 2.985 0 0 0 1.614-3.896Zm7.635 26.06a2.176 2.176 0 0 0-1.685.855 2.176 2.176 0 0 0-.434 1.62 2.193 2.193 0 0 0 2.458 1.885c.37-.049.716-.192 1.012-.41l-1.35-3.95Zm1.922 5.621a3.908 3.908 0 0 1-4.97-5.813 3.88 3.88 0 0 1 2.477-1.478l-1.708-4.994-1.964 1.507a.86.86 0 0 1-1.047-1.364l2.424-1.86-4.442-12.99a4.681 4.681 0 0 1-1.282.795C19.91 12.816 12.818 19.91 9.045 29.017c-.13.317-.294.611-.482.882l2.302.82c.08-.693.346-1.354.782-1.922a3.883 3.883 0 0 1 3.11-1.53c.854 0 1.681.279 2.371.808a3.883 3.883 0 0 1 1.496 2.591c.123.93-.095 1.85-.581 2.613l10.682 3.809.405-.978a.86.86 0 1 1 1.588.658l-.372.898 11.406 4.066-2.22-6.491Z"/><path d="M9.281 20.945a.859.859 0 1 1 0 0ZM7.974 23.08a40.68 40.68 0 0 0-2.237 4.567.86.86 0 1 1-1.588-.657 42.4 42.4 0 0 1 2.332-4.761.86.86 0 1 1 1.493.851ZM26.893 33.001a3.918 3.918 0 0 1-4.386-3.365 3.914 3.914 0 0 1 3.879-4.42 3.918 3.918 0 0 1 3.872 3.4A3.914 3.914 0 0 1 26.893 33Zm1.661-4.161a2.195 2.195 0 0 0-2.458-1.886 2.193 2.193 0 0 0-1.885 2.457 2.194 2.194 0 0 0 2.457 1.886 2.193 2.193 0 0 0 1.886-2.457ZM26.669 22.312a3.918 3.918 0 0 1-4.386-3.365 3.883 3.883 0 0 1 .774-2.891 3.884 3.884 0 0 1 3.105-1.53 3.918 3.918 0 0 1 3.872 3.4 3.914 3.914 0 0 1-3.365 4.386Zm1.661-4.162a2.195 2.195 0 0 0-2.457-1.886 2.177 2.177 0 0 0-1.452.838 2.176 2.176 0 0 0-.434 1.62 2.195 2.195 0 0 0 2.458 1.886 2.193 2.193 0 0 0 1.885-2.458ZM21.001 25.872l-2.641.348a.86.86 0 1 1-.225-1.704l2.642-.348A.86.86 0 0 1 21 25.872ZM19.662 19.53l-.234 1.772a.86.86 0 1 1-1.704-.224l.234-1.772a.86.86 0 1 1 1.704.224Z"/></g></svg><svg viewBox="0 0 8.719 11.52" id="icon-prefix" xmlns="http://www.w3.org/2000/svg"><path d="M2.414 11.145q.867.375 2 .375 1.379 0 2.344-.43.969-.434 1.465-1.113.385-.529.471-1.102.025-.164.025-.332 0-.044-.012-.085-.022-.079-.086-.146-.043-.048-.098-.075-.063-.03-.14-.03H7.55q-.157 0-.246.078l-.02.02q-.086.093-.148.222-.082.383-.387.762-.3.375-.879.625-.574.246-1.488.246-1.137 0-1.746-.488-.234-.188-.377-.43-.229-.385-.229-.906 0-.56.26-.943l.018-.026q.067-.093.155-.183h5.888q.109 0 .19-.048.039-.022.071-.054.04-.04.065-.088.04-.078.04-.178V6.56q0-.104-.043-.183-.024-.043-.062-.08-.036-.037-.08-.06-.078-.045-.181-.045h-4.05q.313-.11.675-.222.746-.246 1.347-.547h2.028q.109 0 .19-.047.039-.022.071-.055.04-.04.065-.088.04-.078.04-.177V4.8q0-.1-.04-.178-.025-.048-.065-.088-.036-.037-.08-.061-.078-.044-.181-.044h-.72q.037-.047.071-.094l.024-.034q.37-.534.37-1.325 0-.656-.24-1.206-.07-.161-.162-.314-.091-.155-.202-.295-.37-.467-.95-.767Q5.793 0 4.719 0 3.71 0 2.94.266q-.765.261-1.277.703-.512.437-.77.941-.253.504-.253.985v.022q.009.101.093.196.045.047.1.072.064.03.143.03h.863q.113 0 .238-.063.023-.011.043-.027.094-.07.133-.215.031-.184.103-.35.19-.442.666-.76.657-.44 1.696-.44.847 0 1.375.402.113.085.202.19.329.389.329 1.056 0 .434-.192.753-.062.102-.144.192-.23.251-.61.477H.368q-.14 0-.23.067-.023.017-.043.038-.024.027-.042.058Q0 4.682 0 4.8v.254q0 .119.052.208.018.03.042.057.016.017.034.03.092.072.24.072h2.919q-.747.272-1.31.601-.138.081-.263.168H.367q-.14 0-.23.067-.023.017-.043.039-.022.023-.039.05Q0 6.436 0 6.56v.257q0 .12.052.208.018.031.042.058.016.017.034.03.092.072.24.072h.451q-.26.517-.26 1.199 0 .874.385 1.518.052.087.11.17.08.111.17.215.466.54 1.19.859Z" fill-rule="evenodd"/></svg><svg viewBox="0 0 24 19.217" id="icon-quotes" xmlns="http://www.w3.org/2000/svg"><path d="M5.217 9.565c1.276.116 2.32.609 3.13 1.479.812.87 1.218 1.97 1.218 3.304 0 1.45-.435 2.637-1.304 3.565-.87.87-1.971 1.304-3.304 1.304-1.508 0-2.725-.55-3.653-1.652C.434 16.464 0 14.754 0 12.435 0 7.97 1.478 4.116 4.435.87c.58-.58 1.246-.87 2-.87.637 0 1.188.232 1.652.696.464.405.696.898.696 1.478 0 .638-.232 1.188-.696 1.652-1.507 1.565-2.464 3.478-2.87 5.74Zm14.435 0c1.275.116 2.319.609 3.13 1.479.812.87 1.218 1.97 1.218 3.304 0 1.45-.435 2.637-1.304 3.565-.87.87-1.971 1.304-3.305 1.304-1.507 0-2.724-.55-3.652-1.652-.87-1.101-1.304-2.811-1.304-5.13 0-4.464 1.478-8.319 4.435-11.565.58-.58 1.246-.87 2-.87.637 0 1.188.232 1.652.696.463.405.695.898.695 1.478 0 .638-.232 1.188-.695 1.652-1.507 1.565-2.464 3.478-2.87 5.74Z"/></svg><svg viewBox="0 0 34 34" id="icon-resto" xmlns="http://www.w3.org/2000/svg"><defs><clipPath id="aua"><path fill-opacity="0" d="M0 0h34v34H0z"/></clipPath></defs><path fill="none" d="M0 0h34v34H0z"/><g clip-path="url(#aua)"><path d="M32.406 28.156h-3.718V17.484a2.31 2.31 0 0 0 1.69-3.092l-1.69-4.397V1.594a.531.531 0 0 0-.532-.532H5.844a.53.53 0 0 0-.532.532v8.4l-1.69 4.398a2.31 2.31 0 0 0 1.69 3.092v10.672H1.595a.531.531 0 0 0-.532.532v3.718a.531.531 0 0 0 .532.532h30.812a.532.532 0 0 0 .532-.532v-3.718a.53.53 0 0 0-.532-.532Zm-5.843 0v-11.33c.29.3.658.517 1.062.625v10.705h-1.063Zm-4.25.532v3.187h-2.125v-3.719h1.062a.53.53 0 0 0 .531-.531v-1.594a.531.531 0 0 0-.531-.531h-3.188a.531.531 0 0 0-.53.531v1.594a.53.53 0 0 0 .53.531h1.063v3.719H17v-3.188a.53.53 0 0 0-.531-.53h-1.063v-1.595a.529.529 0 0 0-.531-.53h-1.063v-8.55a2.309 2.309 0 0 0 1.313-.79 2.288 2.288 0 0 0 1.781.84h.188a2.288 2.288 0 0 0 1.78-.84c.077.092.161.178.251.258v1.644a2.659 2.659 0 0 0-2.656 2.656.529.529 0 0 0 .531.531h5.313a.529.529 0 0 0 .53-.531 2.66 2.66 0 0 0-2.655-2.656v-1.111c.154.032.311.048.469.048h.166a2.306 2.306 0 0 0 1.802-.864 2.302 2.302 0 0 0 1.805.864h.102c.334 0 .664-.07.968-.21v8.71h-1.063a.53.53 0 0 0-.53.532v1.593h-1.063a.532.532 0 0 0-.532.532Zm-3.72-1.594v-.532h2.126v.532h-2.125ZM8.264 14.893l1.173-4.268h2.156l-.79 4.8a1.243 1.243 0 0 1-1.232 1.044h-.102a1.25 1.25 0 0 1-1.204-1.576ZM8.5 17.32c.304.14.634.21.968.21h.102a2.3 2.3 0 0 0 1.805-.864 2.306 2.306 0 0 0 1.375.825v2.695H8.5v-2.866Zm4.677-.852a1.25 1.25 0 0 1-1.231-1.451l.724-4.393h2.175l-.256 4.664a1.248 1.248 0 0 1-1.246 1.18h-.166Zm4.822-.39a1.237 1.237 0 0 1-.905.39h-.188a1.25 1.25 0 0 1-1.245-1.313l.248-4.531h2.182l.248 4.528v.003a1.233 1.233 0 0 1-.34.923Zm1.412-.79-.256-4.664h2.175l.724 4.393a1.248 1.248 0 0 1-1.231 1.45h-.166a1.248 1.248 0 0 1-1.246-1.179Zm.776 4.367a1.597 1.597 0 0 1 1.503 1.063h-4.068a1.597 1.597 0 0 1 1.503-1.063h1.063Zm5.338-3.679a1.239 1.239 0 0 1-.992.492h-.104a1.244 1.244 0 0 1-1.23-1.045l-.792-4.799h2.157l1.172 4.265v.003a1.24 1.24 0 0 1-.211 1.084Zm-.556 11.117h.531v1.062h-.531v-1.062Zm4.418-12.321a1.247 1.247 0 1 1-2.368.779l-1.354-4.927h2.127l1.595 4.148ZM6.375 2.125h21.25v7.438H6.375V2.125ZM4.749 15.928a1.231 1.231 0 0 1-.136-1.155l1.595-4.148h2.127L6.98 15.552a1.252 1.252 0 0 1-1.785.775 1.231 1.231 0 0 1-.447-.4Zm1.626 1.523a2.305 2.305 0 0 0 1.063-.626v11.331H6.375V17.452Zm4.25 14.424h-8.5v-2.656h8.5v2.656Zm.531-3.719H8.5V21.25h4.25v10.625h-1.063v-3.188a.53.53 0 0 0-.53-.53Zm2.656-1.062h.532v1.593a.529.529 0 0 0 .531.532h1.063v2.656h-2.126v-4.781Zm18.063 4.781h-8.5v-2.656h8.5v2.656Z"/><path d="M20.719 6.375h-.577a3.195 3.195 0 0 0-2.61-2.611v-.576a.53.53 0 1 0-1.063 0v.576a3.194 3.194 0 0 0-2.611 2.611h-.577a.531.531 0 0 0-.531.531 2.127 2.127 0 0 0 2.125 2.125h4.25a2.127 2.127 0 0 0 2.125-2.125.531.531 0 0 0-.531-.531ZM17 4.781a2.129 2.129 0 0 1 2.058 1.594h-4.116A2.129 2.129 0 0 1 17 4.781Zm2.125 3.188h-4.25a1.063 1.063 0 0 1-.92-.532h6.09a1.064 1.064 0 0 1-.92.532ZM13.045 5.223a.531.531 0 0 0 .236-.442V3.188H12.22v1.29a2.339 2.339 0 0 1-.531.194V3.188h-1.063v1.484a2.336 2.336 0 0 1-.531-.194v-1.29H9.03V4.78a.531.531 0 0 0 .237.442c.409.273.872.454 1.357.531v3.277h1.063V5.754a3.406 3.406 0 0 0 1.357-.53ZM22.844 2.656a2.125 2.125 0 0 0-.532 4.183v2.192h1.063V6.84a2.125 2.125 0 0 0-.531-4.183Zm0 3.188a1.062 1.062 0 1 1 0-2.125 1.062 1.062 0 0 1 0 2.125Z"/></g></svg><svg viewBox="0 0 44 44" id="icon-sandwich" xmlns="http://www.w3.org/2000/svg"><path fill="none" d="M0 0h44v44H0z"/><path d="M41.8 6.6h-1.467V5.133a2.2 2.2 0 0 0-2.2-2.2h-1.747L35.326.811A1.457 1.457 0 0 0 34.012 0H33c-.81 0-1.467.656-1.467 1.467v1.466h-8.066a2.2 2.2 0 0 0-2.2 2.2V6.6H19.8a2.2 2.2 0 0 0-2.2 2.2v1.467c0 .81.657 1.466 1.467 1.466h.077l.858 7.577-3.533-.83a11.127 11.127 0 0 0-.576-.813L14.646 12.3a.733.733 0 0 0-.713-.568H9.72C7.73 9.981 5.382 9.19 3.61 9.711L2.532 8.537a1.448 1.448 0 0 0-1.605-.366c-.56.215-.93.755-.928 1.355v32.289A2.188 2.188 0 0 0 2.185 44h35.948c.373 0 .686-.28.728-.65l3.593-31.617h.08c.81 0 1.466-.657 1.466-1.466V8.8a2.2 2.2 0 0 0-2.2-2.2ZM33 1.467h1.013l.734 1.466H33V1.467ZM22.733 5.133c0-.405.329-.733.734-.733h14.666c.405 0 .733.328.733.733V6.6H22.734V5.133Zm-2.053 15.84.046.009.593.14.397 4.162a6.76 6.76 0 0 0-3.94-1.242 6.28 6.28 0 0 0-.411-3.848l3.315.78Zm1.433 6.487.01.008c.265.245.517.505.755.779a8.686 8.686 0 0 1 1.876 3.387c.124.437.188.89.19 1.344l-6.85-7.47c1.524.17 2.943.86 4.019 1.952Zm-7.728-9.32v-.002c1.583 1.819 2.32 4.003 1.97 5.472l-7.463-8.137c1.505-.336 3.795.721 5.493 2.667Zm-1.038-4.94.586 2.497a9.347 9.347 0 0 0-1.913-1.154 11.54 11.54 0 0 0-.928-1.343h2.255Zm-3.687.546h.003c.061.07.11.146.17.22a3.992 3.992 0 0 0-2.012.338l-3.015-3.288c1.474.021 3.398 1.058 4.854 2.73Zm21.077 28.356a.717.717 0 0 1-.656.431H2.185a.719.719 0 0 1-.718-.718L1.453 9.533l14.72 16.048v.004l8.644 9.424.01.011 4.74 5.172c.018.022.035.044.055.065l.983 1.072a.716.716 0 0 1 .132.773Zm-4.54-7.757a4.61 4.61 0 0 0 .203-1.352c.385.325.744.68 1.074 1.061.41.469.773.975 1.086 1.513.428.72.73 1.507.895 2.329l-3.257-3.551Zm11.281 8.188h-5.342c.275-.76.1-1.61-.45-2.2l-.74-.806a6.692 6.692 0 0 0-.571-3.594h7.854l-.75 6.6Zm.917-8.066h-8.8a11.218 11.218 0 0 0-1.009-1.375 10.682 10.682 0 0 0-2.512-2.136 10.145 10.145 0 0 0-2.09-3.676c-.22-.25-.44-.482-.671-.706l-.58-6.11a.733.733 0 0 0-.56-.644l-.65-.154-.154-1.333h18.86l-1.834 16.134Zm2-17.6H21.203l-.58-5.134h20.357l-.583 5.134Zm2.138-6.6H19.067V8.8c0-.405.328-.733.733-.733h22c.405 0 .733.328.733.733v1.467Z"/><path d="M31.1 32.267c.042 0 .083-.006.124-.008.011 0 .023.008.034.008a.704.704 0 0 0 .109-.016 3.967 3.967 0 0 0 2.899-1.567 5.101 5.101 0 0 0 .714-4.475c-.102-.38-.195-.753-.285-1.113-.572-2.293-1.119-4.456-3.435-4.553-.024 0-.046-.004-.07-.004-.023 0-.057-.006-.09-.006-2.591 0-4.7 2.632-4.7 5.867s2.109 5.867 4.7 5.867Zm.568-10.157c.758.298 1.092 1.291 1.604 3.341.092.367.187.751.293 1.14a3.656 3.656 0 0 1-.464 3.2 2.592 2.592 0 0 1-.876.734 10.657 10.657 0 0 0-.733-3.68c-.073-.23-.147-.45-.211-.66-.427-1.389.073-3.188.387-4.075Zm-1.576.11a8.05 8.05 0 0 0-.212 4.393c.068.22.143.448.22.685.367 1.12.807 2.472.627 3.468-1.607-.25-2.86-2.112-2.86-4.366 0-1.947.935-3.6 2.225-4.18ZM3.881 38.563l-.518.518A.733.733 0 1 0 4.4 40.118l.518-.518a.733.733 0 0 0-1.037-1.037ZM10.893 33.626a.734.734 0 0 0-1.038-1.037l-.518.518a.733.733 0 1 0 1.037 1.038l.519-.519ZM4.4 31.748l-.519.519a.733.733 0 1 0 1.037 1.037l.519-.519A.733.733 0 0 0 4.4 31.748ZM4.4 26.615l-.519.518a.734.734 0 1 0 1.037 1.037l.519-.518A.733.733 0 0 0 4.4 26.615ZM11 38.563l-.518.518a.733.733 0 1 0 1.036 1.037l.519-.518A.733.733 0 0 0 11 38.563ZM16.348 38.563l-.518.518a.734.734 0 1 0 1.037 1.037l.518-.518a.733.733 0 0 0-1.037-1.037Z"/></svg><svg viewBox="0 0 20.267 20.502" id="icon-search" xmlns="http://www.w3.org/2000/svg"><ellipse cx="9.739" cy="9.634" rx="8.989" ry="8.884"/><path d="m15.99 16.275 3.524 3.474"/></svg><svg viewBox="0 0 16 16" id="icon-star" xmlns="http://www.w3.org/2000/svg"><defs><clipPath id="axa"><path transform="matrix(-1 0 0 1 16 0)" fill-opacity="0" d="M0 0h16v16H0z"/></clipPath></defs><path fill="none" d="M16 0H0v16h16z"/><g clip-path="url(#axa)"><path d="M.02 6.16c.05-.17.2-.29.38-.32l4.96-.72L7.57.62a.478.478 0 0 1 .85 0l2.21 4.5 4.96.72c.18.03.33.15.38.32.06.17.01.36-.12.48l-3.59 3.5.85 4.94c.03.17-.04.35-.18.46a.49.49 0 0 1-.28.09c-.08 0-.15-.02-.22-.06L8 13.24l-4.44 2.33c-.16.09-.35.07-.49-.03a.472.472 0 0 1-.19-.46l.85-4.94-3.59-3.5a.452.452 0 0 1-.12-.48Z" fill-opacity=".3"/></g></svg><svg viewBox="0 0 16.509 15.6" id="icon-subscribe" xmlns="http://www.w3.org/2000/svg"><clipPath id="aya"><path fill-opacity="0" d="M0 0h16.509v15.6H0z"/></clipPath><path fill="none" d="M0 0h16.509v15.6H0z"/><g clip-path="url(#aya)"><path d="M10.318 14.3a.694.694 0 0 1-.616-.36l-2.041-3.858a.622.622 0 0 1 .05-.661L11.005 5.2 6.538 8.313a.725.725 0 0 1-.7.047L1.757 6.432a.647.647 0 0 1-.379-.618.653.653 0 0 1 .449-.574L14.895.69a.719.719 0 0 1 .724.15c.19.179.252.447.16.685l-4.816 12.35a.684.684 0 0 1-.607.424h-.038Z"/></g></svg><svg viewBox="0 0 24 24" id="icon-tel" xmlns="http://www.w3.org/2000/svg"><path fill="none" d="M0 0h24v24H0z"/><path d="M14.353 2.5a7.97 7.97 0 0 1 7.04 7.032M14.353 6.043a4.426 4.426 0 0 1 3.5 3.5M18.465 14.385c2.449 2.448 3.857 2.938.754 6.04-.389.312-2.858 4.07-11.535-4.605C-.993 7.144 2.762 4.672 3.074 4.284c3.11-3.11 3.593-1.695 6.041.753 2.54 2.54-2.072 3.447 1.916 7.435 3.99 3.988 4.894-.625 7.434 1.913Z"/></svg><svg viewBox="0 0 34 34" id="icon-timer" xmlns="http://www.w3.org/2000/svg"><defs><clipPath id="baa"><path fill-opacity="0" d="M0 0h34v34H0z"/></clipPath></defs><path fill="none" d="M0 0h34v34H0z"/><g clip-path="url(#baa)"><path d="m31.754 12.881.996-.996c.288-.288.447-.67.447-1.078 0-.407-.159-.79-.447-1.077l-1.14-1.141a1.514 1.514 0 0 0-1.078-.447c-.407 0-.79.159-1.078.447l-.996.996a12.7 12.7 0 0 0-4.412-1.933V6.179h.606a1.49 1.49 0 0 0 1.488-1.488v-2.07a1.49 1.49 0 0 0-1.488-1.488H17.8a1.49 1.49 0 0 0-1.488 1.488v2.07c0 .82.668 1.488 1.488 1.488h.606v1.477a12.703 12.703 0 0 0-4.392 1.929l-.996-.996a1.514 1.514 0 0 0-1.078-.447c-.407 0-.79.159-1.078.447l-1.14 1.14a1.526 1.526 0 0 0 0 2.156l.176.177H5.19a.664.664 0 0 0 0 1.328h5.193a12.712 12.712 0 0 0-1.215 2.552H.664a.664.664 0 0 0 0 1.328H8.79a12.748 12.748 0 0 0-.314 2.553H4.25a.664.664 0 0 0 0 1.328h4.265c.072.879.233 1.733.474 2.553H3.32a.664.664 0 0 0 0 1.328h6.142c1.932 4.598 6.482 7.836 11.774 7.836C28.274 32.868 34 27.142 34 20.103c0-2.678-.83-5.167-2.246-7.222Zm-1.36-3.353a.192.192 0 0 1 .138-.057c.037 0 .091.01.139.057l1.14 1.14a.192.192 0 0 1 .058.14c0 .037-.01.09-.058.138l-.873.873c-.435-.509-.91-.983-1.418-1.418l.873-.873ZM17.64 4.691v-2.07a.16.16 0 0 1 .16-.16h6.852a.16.16 0 0 1 .16.16v2.07a.16.16 0 0 1-.16.16H17.8a.16.16 0 0 1-.16-.16Zm2.095 1.489h2.983v1.246a12.846 12.846 0 0 0-2.983.002V6.18Zm-9.075 4.489 1.141-1.141a.193.193 0 0 1 .139-.058c.037 0 .091.01.139.058l.873.873c-.51.435-.983.91-1.418 1.418l-.874-.873a.196.196 0 0 1 0-.277Zm10.576 20.87C14.93 31.54 9.8 26.41 9.8 20.103S14.93 8.667 21.236 8.667s11.436 5.13 11.436 11.436-5.13 11.436-11.436 11.436Z"/><path d="m25.619 14.781-3.14 3.14a2.499 2.499 0 0 0-1.243-.331 2.517 2.517 0 0 0-2.514 2.513 2.517 2.517 0 0 0 2.514 2.514 2.517 2.517 0 0 0 2.514-2.514c0-.452-.121-.877-.331-1.244l3.139-3.139a.664.664 0 0 0-.94-.939Zm-4.383 6.508a1.187 1.187 0 0 1-1.186-1.186 1.187 1.187 0 0 1 2.371 0c0 .654-.531 1.186-1.185 1.186ZM21.236 11.494a.669.669 0 0 0 .47-.195.67.67 0 0 0 .194-.47.669.669 0 0 0-.194-.469.669.669 0 0 0-.47-.194.67.67 0 0 0-.47.194.668.668 0 0 0 .47 1.134ZM21.236 28.713a.67.67 0 0 0-.47.194.668.668 0 0 0 .47 1.134.666.666 0 0 0 .47-1.134.669.669 0 0 0-.47-.194ZM14.678 12.881a.67.67 0 0 0-.47.195.67.67 0 0 0-.194.47.67.67 0 0 0 .195.47.669.669 0 0 0 .939 0 .67.67 0 0 0 .194-.47.669.669 0 0 0-.664-.664ZM27.794 25.997a.67.67 0 0 0-.47.194.668.668 0 0 0 0 .94.668.668 0 0 0 1.134-.47.669.669 0 0 0-.664-.664ZM14.678 25.997a.669.669 0 0 0-.47.194.669.669 0 0 0-.194.47.669.669 0 0 0 .664.664.668.668 0 0 0 .664-.664.669.669 0 0 0-.664-.664ZM11.963 19.439a.668.668 0 0 0-.665.664.667.667 0 0 0 .665.664.666.666 0 0 0 .664-.664.669.669 0 0 0-.195-.47.669.669 0 0 0-.47-.194ZM30.979 19.634a.668.668 0 0 0-1.133.47.668.668 0 0 0 .663.663.67.67 0 0 0 .47-.194.67.67 0 0 0 .195-.47.67.67 0 0 0-.195-.47ZM.664 23.704a.668.668 0 0 0-.47.194.67.67 0 0 0-.194.47.67.67 0 0 0 .195.47.669.669 0 0 0 .47.194.669.669 0 0 0 .468-.195.67.67 0 0 0 .195-.47.67.67 0 0 0-.195-.47.668.668 0 0 0-.469-.193Z"/><path d="M30.314 18.087a.664.664 0 0 0 .447-.826 9.963 9.963 0 0 0-6.704-6.69.664.664 0 0 0-.376 1.274 8.576 8.576 0 0 1 5.807 5.795.664.664 0 0 0 .826.447Z"/></g></svg><svg viewBox="0 0 22 22" id="icon-timer2" xmlns="http://www.w3.org/2000/svg"><defs><clipPath id="bba"><path fill-opacity="0" d="M0 0h22v22H0z"/></clipPath></defs><g opacity=".9"><path fill="none" d="M0 0h22v22H0z"/><g clip-path="url(#bba)"><path d="M11.575 2.54v-.959a.611.611 0 0 0-1.222 0v.965c-4.803.333-8.609 4.344-8.609 9.23 0 5.102 4.153 9.254 9.256 9.254 5.103 0 9.256-4.152 9.256-9.255 0-4.91-3.845-8.937-8.681-9.235ZM11 19.808c-4.43 0-8.033-3.604-8.033-8.033 0-4.43 3.603-8.033 8.033-8.033s8.033 3.604 8.033 8.033c0 4.429-3.603 8.033-8.033 8.033Z"/><path d="M7.863 17.322a6.39 6.39 0 0 1-3.234-5.547.305.305 0 1 0-.611 0 7.003 7.003 0 0 0 3.544 6.079.306.306 0 1 0 .301-.532ZM9.53 18.16a6.739 6.739 0 0 1-.353-.102.305.305 0 0 0-.186.582c.127.04.255.078.385.11a.305.305 0 1 0 .153-.59ZM18.885 5.728a.612.612 0 0 0 .863-.865L18.162 3.28a.61.61 0 1 0-.863.865l1.586 1.583ZM11.575 11.661V6.776a.611.611 0 0 0-1.223 0v5.15c0 .168.088.328.21.443l1.789 1.671a.61.61 0 0 0 .657.118.61.61 0 0 0 .163-1.006l-1.596-1.49Z"/></g></g></svg><svg viewBox="0 0 20.526 16.675" id="icon-twitter" xmlns="http://www.w3.org/2000/svg"><path d="M20.526 1.981a8.442 8.442 0 0 1-2.422.651 4.196 4.196 0 0 0 1.85-2.319 8.303 8.303 0 0 1-2.67 1.017A4.197 4.197 0 0 0 14.212 0a4.205 4.205 0 0 0-4.206 4.208c0 .326.04.652.104.965A11.954 11.954 0 0 1 1.436.77a4.176 4.176 0 0 0-.573 2.124c0 1.46.743 2.748 1.875 3.505a4.243 4.243 0 0 1-1.902-.535v.052a4.207 4.207 0 0 0 3.372 4.129 4.46 4.46 0 0 1-1.107.143c-.274 0-.533-.027-.795-.064a4.214 4.214 0 0 0 3.933 2.918 8.43 8.43 0 0 1-5.223 1.798c-.352 0-.678-.012-1.016-.051a11.912 11.912 0 0 0 6.46 1.886c7.737 0 11.97-6.408 11.97-11.97 0-.183 0-.366-.013-.549a9.06 9.06 0 0 0 2.11-2.175Z"/></svg><svg viewBox="0 0 10.516 18" id="pagination-arrow" xmlns="http://www.w3.org/2000/svg"><path d="m.216 9.57 9.008 8.21a.76.76 0 0 0 1.07 0 .75.75 0 0 0 0-1.066L1.83 9l8.464-7.714a.75.75 0 0 0 0-1.065.76.76 0 0 0-1.07 0L.215 8.429A.742.742 0 0 0 0 9a.748.748 0 0 0 .215.572Z"/></svg><svg viewBox="0 0 19 31" id="productSlider-arrow" xmlns="http://www.w3.org/2000/svg"><path d="M.38 14.22 16.39-.17c.53-.51 1.38-.51 1.91 0 .52.52.52 1.36 0 1.87L3.25 15.22l15.04 13.52c.53.52.53 1.35 0 1.87-.52.51-1.37.51-1.9 0L.38 16.22c-.28-.27-.4-.64-.38-1-.02-.36.1-.72.38-1Z"/></svg><svg viewBox="0 0 40 40" id="suggestion-arrow" xmlns="http://www.w3.org/2000/svg"><ellipse cx="20" cy="19.759" rx="17" ry="16.759" fill-opacity=".01"/><ellipse cx="20" cy="19.759" rx="18.5" ry="18.259"/><path d="m21.19 28.68-7.74-7.64c-.61-.6-.61-1.56 0-2.15l7.74-7.64c.58-.49 1.44-.49 2.02 0 .65.55.72 1.51.17 2.15l-6.65 6.55 6.65 6.57c.6.6.6 1.56 0 2.16-.61.59-1.58.59-2.19 0Z"/></svg></svg>